<svg width="140" height="41" viewBox="0 0 140 41" fill="none" xmlns="http://www.w3.org/2000/svg">
<g clip-path="url(#clip0_3_3)">
<path d="M42.791 37.261V36.596H43.54V33.278H42.791V32.613H45.01V33.278H44.261V36.596H45.01V37.261H42.791Z" fill="white"/>
<path d="M45.969 37.261V33.775H46.655V34.489L46.536 34.566C46.578 34.412 46.669 34.272 46.795 34.139C46.921 34.006 47.075 33.901 47.25 33.817C47.425 33.733 47.607 33.698 47.796 33.698C48.062 33.698 48.286 33.747 48.461 33.852C48.636 33.957 48.769 34.111 48.86 34.328C48.951 34.538 48.993 34.811 48.993 35.133V37.261H48.307V35.182C48.307 34.979 48.279 34.818 48.23 34.685C48.181 34.552 48.097 34.461 47.985 34.398C47.873 34.342 47.74 34.314 47.572 34.321C47.439 34.321 47.32 34.342 47.208 34.384C47.096 34.426 46.998 34.482 46.921 34.559C46.844 34.636 46.774 34.72 46.732 34.825C46.69 34.93 46.662 35.035 46.662 35.147V37.261H45.976H45.969Z" fill="white"/>
<path d="M49.623 34.44V33.775H51.842V34.44H49.623ZM50.351 37.261V32.886H51.037V37.261H50.351Z" fill="white"/>
<path d="M54.061 37.331C53.704 37.331 53.382 37.254 53.109 37.1C52.829 36.946 52.612 36.736 52.458 36.47C52.304 36.204 52.22 35.896 52.22 35.553C52.22 35.28 52.262 35.028 52.353 34.804C52.444 34.58 52.563 34.384 52.724 34.216C52.878 34.048 53.067 33.922 53.291 33.831C53.515 33.74 53.746 33.698 54.005 33.698C54.229 33.698 54.439 33.74 54.635 33.824C54.831 33.908 54.999 34.027 55.146 34.181C55.293 34.335 55.398 34.51 55.475 34.713C55.552 34.916 55.587 35.147 55.587 35.385V35.679H52.731L52.577 35.133H54.985L54.887 35.245V35.084C54.873 34.937 54.824 34.804 54.74 34.692C54.656 34.573 54.551 34.489 54.418 34.419C54.292 34.356 54.152 34.321 53.998 34.321C53.76 34.321 53.557 34.363 53.396 34.454C53.235 34.545 53.109 34.678 53.025 34.853C52.941 35.028 52.899 35.245 52.899 35.497C52.899 35.742 52.948 35.952 53.053 36.134C53.158 36.316 53.298 36.449 53.487 36.547C53.676 36.645 53.886 36.694 54.131 36.694C54.306 36.694 54.467 36.666 54.614 36.61C54.761 36.554 54.922 36.449 55.097 36.295L55.44 36.778C55.335 36.883 55.202 36.981 55.048 37.058C54.894 37.135 54.733 37.198 54.565 37.247C54.397 37.296 54.229 37.317 54.061 37.317V37.331Z" fill="white"/>
<path d="M57.855 38.787C57.61 38.787 57.358 38.745 57.113 38.668C56.868 38.591 56.672 38.493 56.518 38.367L56.77 37.835C56.861 37.898 56.959 37.961 57.085 38.01C57.204 38.059 57.33 38.101 57.463 38.129C57.596 38.157 57.729 38.171 57.855 38.171C58.1 38.171 58.303 38.129 58.464 38.052C58.625 37.975 58.751 37.856 58.835 37.702C58.919 37.548 58.961 37.352 58.961 37.121V36.449L59.031 36.498C59.01 36.638 58.94 36.764 58.814 36.89C58.695 37.016 58.541 37.121 58.359 37.198C58.177 37.275 57.995 37.317 57.799 37.317C57.47 37.317 57.169 37.24 56.91 37.079C56.651 36.925 56.448 36.708 56.294 36.435C56.14 36.162 56.07 35.854 56.07 35.504C56.07 35.154 56.147 34.846 56.294 34.573C56.441 34.3 56.644 34.083 56.903 33.929C57.162 33.775 57.456 33.691 57.778 33.691C57.911 33.691 58.037 33.705 58.163 33.74C58.289 33.775 58.401 33.817 58.506 33.88C58.611 33.943 58.709 34.006 58.793 34.076C58.877 34.146 58.947 34.223 58.996 34.3C59.052 34.377 59.08 34.454 59.094 34.524L58.947 34.58V33.761H59.633V37.037C59.633 37.317 59.591 37.562 59.507 37.779C59.423 37.996 59.304 38.178 59.15 38.325C58.996 38.472 58.807 38.584 58.583 38.661C58.359 38.738 58.114 38.78 57.834 38.78L57.855 38.787ZM57.883 36.694C58.1 36.694 58.289 36.645 58.464 36.54C58.639 36.435 58.765 36.302 58.856 36.12C58.947 35.938 58.996 35.742 58.996 35.511C58.996 35.28 58.947 35.077 58.856 34.895C58.758 34.713 58.632 34.573 58.464 34.475C58.296 34.37 58.107 34.321 57.89 34.321C57.673 34.321 57.491 34.37 57.323 34.475C57.155 34.58 57.029 34.72 56.931 34.902C56.833 35.084 56.791 35.28 56.791 35.511C56.791 35.742 56.84 35.938 56.931 36.12C57.029 36.302 57.155 36.442 57.323 36.54C57.491 36.645 57.68 36.694 57.89 36.694H57.883Z" fill="white"/>
<path d="M60.599 37.261V33.775H61.292V34.874L61.229 34.608C61.278 34.44 61.362 34.286 61.481 34.146C61.6 34.006 61.733 33.901 61.887 33.824C62.041 33.747 62.195 33.705 62.363 33.705C62.44 33.705 62.51 33.705 62.58 33.726C62.65 33.74 62.706 33.754 62.741 33.775L62.559 34.517C62.503 34.496 62.447 34.475 62.384 34.461C62.321 34.447 62.258 34.44 62.195 34.44C62.076 34.44 61.964 34.461 61.852 34.51C61.747 34.559 61.649 34.622 61.565 34.706C61.481 34.79 61.418 34.881 61.369 34.993C61.32 35.105 61.299 35.217 61.299 35.35V37.275H60.606L60.599 37.261Z" fill="white"/>
<path d="M64.47 37.331C64.183 37.331 63.917 37.254 63.686 37.093C63.448 36.932 63.259 36.715 63.119 36.442C62.979 36.169 62.909 35.861 62.909 35.511C62.909 35.161 62.979 34.853 63.126 34.58C63.273 34.307 63.462 34.097 63.707 33.936C63.952 33.782 64.225 33.705 64.533 33.705C64.715 33.705 64.883 33.733 65.03 33.782C65.177 33.838 65.31 33.908 65.422 34.006C65.534 34.104 65.625 34.209 65.702 34.335C65.772 34.461 65.821 34.594 65.835 34.734L65.681 34.678V33.775H66.374V37.261H65.681V36.428L65.842 36.379C65.814 36.498 65.758 36.617 65.681 36.729C65.597 36.841 65.492 36.939 65.366 37.03C65.24 37.121 65.1 37.191 64.946 37.24C64.792 37.296 64.631 37.317 64.463 37.317L64.47 37.331ZM64.652 36.694C64.862 36.694 65.044 36.645 65.205 36.54C65.366 36.435 65.492 36.295 65.583 36.12C65.674 35.938 65.716 35.735 65.716 35.504C65.716 35.273 65.674 35.077 65.583 34.902C65.492 34.727 65.366 34.587 65.205 34.482C65.044 34.377 64.862 34.328 64.652 34.328C64.442 34.328 64.267 34.377 64.113 34.482C63.959 34.587 63.833 34.72 63.742 34.902C63.651 35.077 63.609 35.28 63.609 35.504C63.609 35.728 63.651 35.938 63.742 36.12C63.833 36.302 63.959 36.442 64.113 36.54C64.267 36.638 64.449 36.694 64.652 36.694Z" fill="white"/>
<path d="M67.046 34.44V33.775H69.265V34.44H67.046ZM67.767 37.261V32.886H68.453V37.261H67.767Z" fill="white"/>
<path d="M71.477 37.331C71.12 37.331 70.798 37.254 70.525 37.1C70.245 36.946 70.028 36.736 69.874 36.47C69.72 36.204 69.636 35.896 69.636 35.553C69.636 35.28 69.678 35.028 69.769 34.804C69.86 34.58 69.979 34.384 70.14 34.216C70.294 34.048 70.483 33.922 70.707 33.831C70.931 33.74 71.162 33.698 71.421 33.698C71.645 33.698 71.855 33.74 72.051 33.824C72.247 33.908 72.415 34.027 72.562 34.181C72.709 34.328 72.814 34.51 72.891 34.713C72.968 34.916 73.003 35.147 73.003 35.385V35.679H70.147L69.993 35.133H72.401L72.303 35.245V35.084C72.289 34.937 72.24 34.804 72.156 34.692C72.072 34.573 71.967 34.489 71.834 34.419C71.708 34.356 71.568 34.321 71.414 34.321C71.176 34.321 70.973 34.363 70.812 34.454C70.651 34.545 70.525 34.678 70.441 34.853C70.357 35.028 70.315 35.245 70.315 35.497C70.315 35.742 70.364 35.952 70.469 36.134C70.574 36.316 70.714 36.449 70.903 36.547C71.092 36.645 71.302 36.694 71.547 36.694C71.722 36.694 71.883 36.666 72.03 36.61C72.177 36.554 72.338 36.449 72.513 36.295L72.856 36.778C72.751 36.883 72.618 36.981 72.471 37.058C72.317 37.135 72.156 37.198 71.988 37.247C71.82 37.296 71.652 37.317 71.484 37.317L71.477 37.331Z" fill="white"/>
<path d="M75.201 37.331C74.879 37.331 74.599 37.254 74.347 37.093C74.095 36.939 73.899 36.722 73.752 36.449C73.605 36.176 73.535 35.868 73.535 35.518C73.535 35.168 73.605 34.86 73.752 34.587C73.899 34.314 74.095 34.097 74.34 33.943C74.585 33.789 74.872 33.705 75.187 33.705C75.362 33.705 75.523 33.733 75.691 33.789C75.852 33.845 75.999 33.922 76.125 34.013C76.251 34.111 76.356 34.216 76.426 34.328C76.496 34.44 76.538 34.552 76.538 34.671L76.342 34.685V32.354H77.028V37.268H76.342V36.435H76.475C76.475 36.54 76.44 36.645 76.37 36.75C76.3 36.855 76.202 36.953 76.09 37.037C75.971 37.128 75.838 37.198 75.684 37.247C75.53 37.303 75.376 37.324 75.215 37.324L75.201 37.331ZM75.292 36.736C75.502 36.736 75.684 36.68 75.845 36.575C76.006 36.47 76.132 36.323 76.223 36.141C76.314 35.959 76.356 35.749 76.356 35.511C76.356 35.273 76.307 35.07 76.223 34.881C76.132 34.699 76.006 34.552 75.845 34.447C75.684 34.342 75.502 34.286 75.292 34.286C75.082 34.286 74.9 34.342 74.739 34.447C74.578 34.552 74.452 34.699 74.361 34.881C74.27 35.063 74.221 35.273 74.221 35.511C74.221 35.749 74.27 35.952 74.361 36.141C74.452 36.323 74.578 36.47 74.739 36.575C74.9 36.68 75.082 36.736 75.292 36.736Z" fill="white"/>
<path d="M79.499 37.261L81.298 32.613H82.026L83.811 37.261H83.048L81.984 34.461C81.984 34.461 81.949 34.356 81.907 34.237C81.872 34.118 81.823 33.985 81.774 33.838C81.725 33.691 81.683 33.558 81.641 33.439C81.599 33.32 81.578 33.236 81.564 33.201H81.718C81.69 33.271 81.662 33.362 81.62 33.481C81.585 33.6 81.543 33.719 81.501 33.845C81.459 33.971 81.417 34.097 81.375 34.209C81.333 34.321 81.305 34.419 81.277 34.489L80.22 37.261H79.492H79.499ZM80.297 36.106L80.563 35.413H82.677L82.985 36.106H80.304H80.297Z" fill="white"/>
<path d="M84.462 37.261V36.596H85.211V33.278H84.462V32.613H86.681V33.278H85.932V36.596H86.681V37.261H84.462Z" fill="white"/>
<path d="M89.6629 37.261V32.613H91.483C91.812 32.613 92.1129 32.669 92.3859 32.781C92.6519 32.893 92.883 33.054 93.072 33.257C93.261 33.467 93.4079 33.712 93.5129 33.992C93.6179 34.272 93.6669 34.587 93.6669 34.937C93.6669 35.287 93.6179 35.595 93.5129 35.882C93.4079 36.169 93.2679 36.414 93.0789 36.617C92.8899 36.82 92.659 36.981 92.393 37.093C92.127 37.205 91.8189 37.261 91.4899 37.261H89.67H89.6629ZM90.3839 36.645L90.3629 36.575H91.4549C91.6859 36.575 91.896 36.54 92.085 36.463C92.267 36.386 92.421 36.281 92.547 36.141C92.673 36.001 92.7709 35.833 92.8339 35.623C92.8969 35.413 92.9319 35.189 92.9319 34.937C92.9319 34.685 92.8969 34.461 92.8339 34.258C92.7709 34.055 92.6729 33.887 92.5399 33.74C92.4069 33.593 92.2529 33.488 92.0779 33.418C91.8959 33.341 91.6859 33.306 91.4549 33.306H90.349L90.391 33.243V36.645H90.3839Z" fill="white"/>
<path d="M94.4581 37.261V33.775H95.151V34.874L95.0811 34.608C95.1301 34.44 95.2141 34.286 95.3331 34.146C95.4521 34.006 95.5851 33.901 95.7391 33.824C95.8931 33.747 96.0471 33.705 96.2151 33.705C96.2921 33.705 96.3621 33.705 96.4321 33.726C96.5021 33.74 96.5581 33.754 96.5931 33.775L96.4111 34.517C96.3551 34.496 96.2991 34.475 96.2361 34.461C96.1731 34.447 96.1101 34.44 96.0471 34.44C95.9281 34.44 95.8161 34.461 95.7041 34.51C95.5921 34.559 95.5011 34.622 95.4171 34.706C95.3331 34.79 95.2701 34.881 95.2211 34.993C95.1721 35.105 95.151 35.217 95.151 35.35V37.275H94.4581V37.261Z" fill="white"/>
<path d="M98.3571 37.331C98.1121 37.331 97.8951 37.275 97.7131 37.156C97.5311 37.037 97.3911 36.876 97.2861 36.673C97.1881 36.463 97.1391 36.218 97.1391 35.931V33.782H97.8251V35.749C97.8251 35.952 97.8601 36.127 97.9231 36.274C97.9861 36.421 98.0771 36.54 98.2031 36.617C98.3221 36.694 98.4691 36.736 98.6441 36.736C98.7701 36.736 98.8891 36.715 98.9941 36.673C99.0991 36.631 99.1901 36.575 99.2671 36.498C99.3441 36.421 99.4071 36.33 99.4491 36.225C99.4911 36.12 99.5121 36.001 99.5121 35.882V33.782H100.198V37.268H99.5121V36.54L99.6311 36.463C99.5751 36.624 99.4911 36.778 99.3651 36.911C99.2391 37.044 99.0921 37.149 98.9171 37.226C98.7421 37.303 98.5601 37.345 98.3571 37.345V37.331Z" fill="white"/>
<path d="M102.648 38.787C102.403 38.787 102.151 38.745 101.906 38.668C101.661 38.591 101.465 38.493 101.311 38.367L101.563 37.835C101.654 37.898 101.752 37.961 101.878 38.01C101.997 38.059 102.123 38.101 102.256 38.129C102.389 38.157 102.522 38.171 102.648 38.171C102.893 38.171 103.096 38.129 103.257 38.052C103.418 37.975 103.544 37.856 103.628 37.702C103.712 37.548 103.754 37.352 103.754 37.121V36.449L103.824 36.498C103.803 36.638 103.733 36.764 103.607 36.89C103.488 37.016 103.334 37.121 103.152 37.198C102.97 37.275 102.781 37.317 102.592 37.317C102.263 37.317 101.962 37.24 101.703 37.079C101.444 36.925 101.241 36.708 101.087 36.435C100.933 36.162 100.863 35.854 100.863 35.504C100.863 35.154 100.94 34.846 101.087 34.573C101.234 34.3 101.437 34.083 101.696 33.929C101.955 33.775 102.249 33.691 102.571 33.691C102.704 33.691 102.83 33.705 102.956 33.74C103.082 33.775 103.194 33.817 103.299 33.88C103.404 33.943 103.502 34.006 103.586 34.076C103.67 34.146 103.74 34.223 103.789 34.3C103.845 34.377 103.873 34.454 103.887 34.524L103.74 34.58V33.761H104.426V37.037C104.426 37.317 104.384 37.562 104.3 37.779C104.216 37.996 104.097 38.178 103.943 38.325C103.789 38.472 103.6 38.584 103.376 38.661C103.152 38.738 102.907 38.78 102.627 38.78L102.648 38.787ZM102.676 36.694C102.893 36.694 103.082 36.645 103.257 36.54C103.432 36.435 103.558 36.302 103.649 36.12C103.74 35.938 103.789 35.742 103.789 35.511C103.789 35.28 103.74 35.077 103.649 34.895C103.558 34.713 103.425 34.573 103.257 34.475C103.089 34.377 102.9 34.321 102.683 34.321C102.466 34.321 102.284 34.37 102.116 34.475C101.948 34.58 101.822 34.72 101.724 34.902C101.626 35.084 101.584 35.28 101.584 35.511C101.584 35.742 101.633 35.938 101.724 36.12C101.815 36.302 101.948 36.442 102.116 36.54C102.284 36.645 102.473 36.694 102.683 36.694H102.676Z" fill="white"/>
<path d="M107.429 37.261V32.613H109.249C109.578 32.613 109.879 32.669 110.152 32.781C110.418 32.893 110.649 33.054 110.838 33.257C111.027 33.467 111.174 33.712 111.279 33.992C111.384 34.272 111.433 34.587 111.433 34.937C111.433 35.287 111.384 35.595 111.279 35.882C111.174 36.169 111.034 36.414 110.845 36.617C110.656 36.82 110.425 36.981 110.159 37.093C109.893 37.205 109.585 37.261 109.256 37.261H107.436H107.429ZM108.143 36.645L108.122 36.575H109.214C109.445 36.575 109.655 36.54 109.844 36.463C110.026 36.386 110.18 36.281 110.306 36.141C110.432 36.001 110.53 35.833 110.593 35.623C110.656 35.413 110.691 35.189 110.691 34.937C110.691 34.685 110.656 34.461 110.593 34.258C110.53 34.055 110.432 33.887 110.299 33.74C110.166 33.593 110.012 33.488 109.837 33.418C109.655 33.341 109.445 33.306 109.214 33.306H108.108L108.15 33.243V36.645H108.143Z" fill="white"/>
<path d="M112.665 33.005C112.518 33.005 112.406 32.97 112.329 32.893C112.252 32.816 112.21 32.711 112.21 32.571C112.21 32.445 112.252 32.34 112.336 32.256C112.42 32.179 112.532 32.137 112.672 32.137C112.812 32.137 112.931 32.172 113.008 32.249C113.085 32.326 113.127 32.431 113.127 32.571C113.127 32.697 113.085 32.802 113.008 32.886C112.924 32.963 112.812 33.005 112.672 33.005H112.665ZM112.336 37.261V33.775H113.022V37.261H112.336Z" fill="white"/>
<path d="M115.227 37.331C114.933 37.331 114.674 37.282 114.436 37.177C114.198 37.072 114.009 36.925 113.855 36.722L114.317 36.323C114.45 36.477 114.597 36.589 114.751 36.659C114.905 36.729 115.087 36.764 115.283 36.764C115.36 36.764 115.437 36.757 115.507 36.736C115.577 36.715 115.633 36.687 115.689 36.645C115.738 36.603 115.78 36.561 115.808 36.505C115.836 36.449 115.85 36.386 115.85 36.323C115.85 36.204 115.808 36.113 115.724 36.043C115.682 36.015 115.612 35.98 115.514 35.938C115.416 35.896 115.297 35.861 115.143 35.819C114.884 35.756 114.674 35.679 114.513 35.595C114.352 35.511 114.226 35.413 114.135 35.308C114.065 35.224 114.016 35.133 113.988 35.035C113.96 34.937 113.939 34.825 113.939 34.706C113.939 34.559 113.974 34.426 114.037 34.307C114.1 34.188 114.191 34.076 114.303 33.985C114.415 33.894 114.548 33.824 114.702 33.775C114.856 33.726 115.017 33.705 115.192 33.705C115.353 33.705 115.521 33.726 115.682 33.768C115.843 33.81 115.99 33.873 116.13 33.957C116.27 34.041 116.382 34.139 116.473 34.258L116.081 34.692C115.997 34.608 115.906 34.531 115.808 34.468C115.71 34.405 115.605 34.356 115.507 34.321C115.402 34.286 115.311 34.265 115.227 34.265C115.136 34.265 115.052 34.272 114.975 34.293C114.898 34.314 114.835 34.335 114.786 34.37C114.737 34.405 114.695 34.447 114.667 34.503C114.639 34.559 114.625 34.615 114.625 34.685C114.625 34.741 114.646 34.797 114.667 34.846C114.695 34.895 114.723 34.937 114.772 34.979C114.821 35.014 114.891 35.049 114.989 35.091C115.087 35.133 115.213 35.168 115.36 35.203C115.584 35.259 115.766 35.322 115.906 35.392C116.053 35.462 116.165 35.539 116.249 35.63C116.34 35.714 116.396 35.812 116.438 35.924C116.48 36.036 116.494 36.155 116.494 36.295C116.494 36.491 116.438 36.673 116.326 36.827C116.214 36.981 116.06 37.107 115.871 37.198C115.682 37.289 115.465 37.331 115.234 37.331H115.227Z" fill="white"/>
<path d="M118.727 37.331C118.405 37.331 118.111 37.254 117.859 37.093C117.607 36.932 117.404 36.715 117.257 36.442C117.11 36.169 117.033 35.861 117.033 35.518C117.033 35.175 117.11 34.867 117.257 34.594C117.404 34.321 117.607 34.104 117.859 33.943C118.111 33.782 118.405 33.705 118.727 33.705C119.049 33.705 119.322 33.768 119.574 33.894C119.826 34.02 120.022 34.195 120.155 34.412L119.777 34.874C119.707 34.769 119.616 34.678 119.504 34.594C119.392 34.51 119.273 34.447 119.154 34.398C119.035 34.349 118.909 34.328 118.797 34.328C118.587 34.328 118.398 34.377 118.23 34.482C118.062 34.587 117.936 34.727 117.838 34.909C117.74 35.091 117.691 35.294 117.691 35.518C117.691 35.742 117.74 35.945 117.845 36.127C117.95 36.309 118.083 36.449 118.251 36.554C118.419 36.659 118.608 36.715 118.811 36.715C118.93 36.715 119.049 36.694 119.161 36.652C119.273 36.61 119.385 36.554 119.49 36.47C119.595 36.393 119.693 36.295 119.791 36.176L120.169 36.638C120.029 36.834 119.826 37.002 119.56 37.128C119.294 37.254 119.021 37.324 118.741 37.324L118.727 37.331Z" fill="white"/>
<path d="M122.367 37.331C122.024 37.331 121.723 37.254 121.457 37.093C121.191 36.939 120.981 36.722 120.82 36.449C120.666 36.176 120.589 35.868 120.589 35.518C120.589 35.168 120.666 34.86 120.82 34.587C120.974 34.314 121.184 34.097 121.457 33.943C121.723 33.789 122.031 33.705 122.367 33.705C122.703 33.705 123.004 33.782 123.27 33.943C123.536 34.097 123.746 34.314 123.907 34.587C124.061 34.86 124.138 35.168 124.138 35.518C124.138 35.868 124.061 36.176 123.907 36.449C123.753 36.722 123.543 36.939 123.27 37.093C123.004 37.247 122.703 37.331 122.367 37.331ZM122.367 36.701C122.577 36.701 122.759 36.652 122.927 36.547C123.088 36.442 123.221 36.302 123.312 36.12C123.403 35.938 123.452 35.742 123.445 35.511C123.445 35.28 123.403 35.077 123.312 34.895C123.221 34.713 123.088 34.573 122.927 34.475C122.766 34.37 122.577 34.321 122.367 34.321C122.157 34.321 121.975 34.37 121.807 34.475C121.639 34.58 121.513 34.72 121.422 34.902C121.331 35.084 121.282 35.28 121.289 35.511C121.289 35.735 121.331 35.938 121.422 36.12C121.513 36.302 121.646 36.442 121.807 36.547C121.968 36.652 122.157 36.701 122.367 36.701Z" fill="white"/>
<path d="M125.93 37.261L124.453 33.775H125.188L126.252 36.386L126.126 36.442L127.26 33.775H127.96L126.413 37.261H125.923H125.93Z" fill="white"/>
<path d="M130.116 37.331C129.759 37.331 129.437 37.254 129.164 37.1C128.891 36.946 128.667 36.736 128.513 36.47C128.359 36.204 128.275 35.896 128.275 35.553C128.275 35.28 128.317 35.028 128.408 34.804C128.499 34.58 128.618 34.384 128.779 34.216C128.94 34.048 129.122 33.922 129.346 33.831C129.563 33.74 129.801 33.698 130.06 33.698C130.284 33.698 130.494 33.74 130.69 33.824C130.886 33.908 131.054 34.027 131.201 34.181C131.348 34.328 131.453 34.51 131.53 34.713C131.607 34.916 131.642 35.147 131.642 35.385V35.679H128.786L128.632 35.133H131.04L130.942 35.245V35.084C130.928 34.937 130.879 34.804 130.795 34.692C130.711 34.573 130.606 34.489 130.473 34.419C130.347 34.356 130.207 34.321 130.053 34.321C129.815 34.321 129.612 34.363 129.451 34.454C129.29 34.545 129.164 34.678 129.08 34.853C128.996 35.028 128.954 35.245 128.954 35.497C128.954 35.742 129.003 35.952 129.108 36.134C129.213 36.316 129.353 36.449 129.542 36.547C129.731 36.645 129.941 36.694 130.186 36.694C130.361 36.694 130.522 36.666 130.669 36.61C130.816 36.554 130.977 36.449 131.152 36.295L131.495 36.778C131.39 36.883 131.257 36.981 131.11 37.058C130.956 37.135 130.795 37.198 130.627 37.247C130.459 37.296 130.291 37.317 130.123 37.317L130.116 37.331Z" fill="white"/>
<path d="M132.384 37.261V33.775H133.077V34.874L133.007 34.608C133.056 34.44 133.14 34.286 133.259 34.146C133.378 34.006 133.511 33.901 133.665 33.824C133.819 33.747 133.973 33.705 134.141 33.705C134.218 33.705 134.288 33.705 134.358 33.726C134.428 33.74 134.484 33.754 134.519 33.775L134.337 34.517C134.281 34.496 134.225 34.475 134.162 34.461C134.099 34.447 134.036 34.44 133.973 34.44C133.854 34.44 133.742 34.461 133.63 34.51C133.518 34.559 133.427 34.622 133.343 34.706C133.259 34.79 133.196 34.881 133.147 34.993C133.098 35.105 133.077 35.217 133.077 35.35V37.275H132.384V37.261Z" fill="white"/>
<path d="M135.639 38.7869L136.346 37.1629V37.7089L134.61 33.7749H135.408L136.5 36.3369C136.521 36.3789 136.549 36.4489 136.577 36.5399C136.605 36.6309 136.633 36.7219 136.654 36.8059L136.479 36.8479C136.514 36.7569 136.549 36.6589 136.584 36.5679C136.619 36.4769 136.647 36.3789 136.682 36.2879L137.592 33.7679H138.404L136.969 37.2539L136.381 38.7799H135.646L135.639 38.7869Z" fill="white"/>
<path d="M51.9191 28.609C50.3861 28.609 49.0071 28.427 47.7751 28.063C46.5431 27.699 45.4511 27.167 44.4991 26.467C43.5471 25.767 42.6931 24.941 41.9371 23.989L45.3601 20.097C46.4661 21.581 47.5861 22.582 48.7061 23.093C49.8261 23.604 50.9811 23.856 52.1851 23.856C52.7801 23.856 53.3261 23.779 53.8161 23.625C54.3061 23.471 54.6841 23.24 54.9501 22.946C55.2161 22.652 55.3491 22.274 55.3491 21.833C55.3491 21.504 55.2651 21.203 55.0971 20.937C54.9291 20.671 54.7051 20.44 54.4181 20.237C54.1311 20.034 53.7881 19.852 53.3891 19.691C52.9901 19.523 52.5701 19.383 52.1221 19.257C51.6811 19.138 51.2261 19.033 50.7571 18.942C49.4691 18.655 48.3491 18.298 47.3971 17.878C46.4451 17.458 45.6471 16.94 45.0171 16.331C44.3871 15.722 43.9111 15.022 43.6031 14.238C43.2951 13.454 43.1341 12.572 43.1341 11.592C43.1341 10.549 43.3721 9.59001 43.8481 8.71502C44.3241 7.84002 44.9681 7.08402 45.7801 6.45402C46.5921 5.82402 47.5231 5.33402 48.5941 4.99102C49.6581 4.64802 50.7641 4.47302 51.9191 4.47302C53.4521 4.47302 54.7611 4.63402 55.8601 4.95602C56.9591 5.27802 57.8971 5.74002 58.6881 6.33502C59.4721 6.93702 60.1441 7.65102 60.7041 8.49802L57.2111 11.858C56.7421 11.284 56.2381 10.808 55.6991 10.43C55.1531 10.052 54.5791 9.76501 53.9701 9.56201C53.3611 9.35901 52.7311 9.26101 52.0941 9.26101C51.4571 9.26101 50.8551 9.34502 50.3791 9.51301C49.9031 9.68101 49.5321 9.91201 49.2661 10.213C49.0001 10.514 48.8671 10.871 48.8671 11.291C48.8671 11.669 48.9791 11.991 49.2031 12.257C49.4271 12.523 49.7211 12.761 50.0991 12.971C50.4771 13.181 50.9111 13.356 51.3941 13.503C51.8841 13.65 52.3951 13.762 52.9271 13.853C54.1451 14.098 55.2511 14.42 56.2381 14.819C57.2251 15.218 58.0791 15.708 58.8001 16.282C59.5211 16.856 60.0741 17.542 60.4661 18.326C60.8511 19.11 61.0471 20.027 61.0471 21.07C61.0471 22.687 60.6551 24.059 59.8641 25.179C59.0801 26.299 58.0021 27.153 56.6371 27.741C55.2721 28.329 53.7041 28.623 51.9331 28.623L51.9191 28.609Z" fill="white"/>
<path d="M65.289 28.273V4.99097H70.343L78.827 18.795L75.201 18.76L83.783 4.99097H88.641V28.273H83.153V21.021C83.153 19.026 83.202 17.227 83.3 15.631C83.398 14.035 83.573 12.453 83.818 10.878L84.448 12.607L77.994 22.617H75.796L69.475 12.67L70.105 10.871C70.35 12.355 70.518 13.881 70.623 15.442C70.728 17.003 70.77 18.865 70.77 21.014V28.266H65.282L65.289 28.273Z" fill="white"/>
<path d="M91.539 28.273L100.751 4.99097H105.539L114.688 28.273H108.969L104.58 16.464C104.405 15.995 104.223 15.498 104.048 14.966C103.873 14.434 103.691 13.888 103.516 13.321C103.341 12.754 103.166 12.201 102.998 11.655C102.83 11.109 102.69 10.605 102.585 10.143L103.586 10.108C103.453 10.661 103.306 11.207 103.138 11.739C102.97 12.271 102.809 12.796 102.641 13.321C102.473 13.839 102.291 14.364 102.095 14.882C101.899 15.4 101.71 15.939 101.528 16.492L97.139 28.266H91.553L91.539 28.273ZM95.928 23.814L97.692 19.558H108.402L110.131 23.814H95.928Z" fill="white"/>
<path d="M127.729 28.609C125.867 28.609 124.18 28.308 122.675 27.713C121.17 27.118 119.868 26.271 118.783 25.186C117.698 24.101 116.865 22.82 116.291 21.343C115.717 19.866 115.423 18.263 115.423 16.534C115.423 14.805 115.731 13.216 116.34 11.76C116.949 10.304 117.824 9.03705 118.951 7.95205C120.085 6.86705 121.415 6.02005 122.962 5.42505C124.502 4.82305 126.182 4.52905 128.002 4.52905C129.29 4.52905 130.501 4.69705 131.642 5.02605C132.783 5.36205 133.819 5.81005 134.75 6.39105C135.681 6.96505 136.472 7.63005 137.109 8.38605L133.686 12.012C133.133 11.48 132.559 11.039 131.971 10.682C131.383 10.325 130.76 10.045 130.095 9.83505C129.43 9.62505 128.723 9.52005 127.967 9.52005C126.994 9.52005 126.098 9.69505 125.286 10.052C124.474 10.409 123.767 10.899 123.158 11.529C122.549 12.159 122.08 12.901 121.744 13.755C121.408 14.609 121.247 15.533 121.247 16.534C121.247 17.535 121.422 18.466 121.779 19.327C122.136 20.188 122.619 20.937 123.242 21.574C123.865 22.204 124.6 22.708 125.454 23.072C126.308 23.436 127.225 23.618 128.198 23.618C128.884 23.618 129.535 23.506 130.144 23.282C130.753 23.058 131.278 22.764 131.726 22.386C132.167 22.008 132.524 21.56 132.79 21.042C133.056 20.524 133.189 19.964 133.189 19.362V18.494L133.924 19.628H127.505V15.204H138.446C138.488 15.449 138.523 15.778 138.544 16.205C138.565 16.625 138.579 17.038 138.593 17.437C138.607 17.836 138.607 18.137 138.607 18.333C138.607 19.838 138.334 21.224 137.795 22.477C137.249 23.73 136.493 24.808 135.52 25.718C134.547 26.628 133.392 27.335 132.062 27.846C130.732 28.357 129.29 28.609 127.736 28.609H127.729Z" fill="white"/>
<path d="M3.136 37.751C9.093 40.397 16.457 41.685 22.358 38.668C23.079 38.304 23.772 37.898 24.437 37.45C25.025 37.051 25.753 36.925 26.446 37.065C27.671 37.317 28.973 37.317 30.289 37.016C34.748 36.001 37.772 31.724 37.261 27.181C36.673 22.029 31.934 18.459 26.866 19.25C25.032 19.537 23.408 20.37 22.127 21.553C21.539 22.099 20.657 22.169 20.006 21.7L17.857 20.139C17.227 19.684 16.996 18.844 17.311 18.13C17.976 16.646 18.249 14.98 18.018 13.265C17.976 12.943 17.913 12.635 17.843 12.327C17.724 11.837 17.759 11.319 17.941 10.85C18.557 9.25402 19.67 7.86103 21.21 7.04203C24.444 5.46703 28.434 5.52303 31.738 6.99303C32.683 7.41303 33.299 8.35802 33.271 9.39402C33.257 9.81402 34.02 10.339 34.118 10.766V4.90703C28.161 2.26103 20.853 0.973034 14.959 3.99003C14.238 4.35403 13.545 4.76003 12.88 5.20803C12.292 5.60703 11.564 5.73303 10.871 5.59303C9.646 5.34103 8.344 5.34103 7.028 5.64203C2.562 6.66403 -0.461998 10.934 0.056002 15.477C0.644002 20.629 5.383 24.199 10.451 23.408C11.886 23.184 13.195 22.624 14.308 21.826C14.889 21.406 15.68 21.427 16.261 21.847L18.97 23.814C19.544 24.234 19.782 24.969 19.579 25.648C19.229 26.831 19.11 28.098 19.285 29.393C19.327 29.715 19.39 30.023 19.46 30.331C19.579 30.821 19.544 31.339 19.362 31.808C18.746 33.404 17.633 34.797 16.093 35.616C12.859 37.191 8.869 37.135 5.565 35.665C4.62 35.245 3.227 31.213 3.129 30.786V37.751H3.136Z" fill="url(#paint0_linear_3_3)"/>
<path d="M9.06499 19.026C11.5431 19.026 13.552 17.0171 13.552 14.539C13.552 12.0609 11.5431 10.052 9.06499 10.052C6.58689 10.052 4.578 12.0609 4.578 14.539C4.578 17.0171 6.58689 19.026 9.06499 19.026Z" fill="white"/>
<path d="M28.252 32.7671C30.7301 32.7671 32.739 30.7582 32.739 28.2801C32.739 25.802 30.7301 23.7931 28.252 23.7931C25.7739 23.7931 23.765 25.802 23.765 28.2801C23.765 30.7582 25.7739 32.7671 28.252 32.7671Z" fill="white"/>
<path d="M9.05801 20.118C6.30701 20.118 3.99001 18.144 3.55601 15.421C3.32501 13.951 3.67501 12.474 4.55001 11.27C5.42501 10.066 6.71301 9.26804 8.19001 9.03704C8.48401 8.98804 8.77801 8.96704 9.07201 8.96704C11.823 8.96704 14.14 10.941 14.574 13.664C14.805 15.134 14.455 16.611 13.58 17.815C12.705 19.019 11.417 19.817 9.94001 20.048C9.64601 20.097 9.35201 20.118 9.05801 20.118Z" fill="#1D75BC"/>
<path d="M9.06499 19.026C11.5431 19.026 13.552 17.0171 13.552 14.539C13.552 12.0609 11.5431 10.052 9.06499 10.052C6.58689 10.052 4.578 12.0609 4.578 14.539C4.578 17.0171 6.58689 19.026 9.06499 19.026Z" fill="white"/>
<path d="M9.06499 19.026C11.5431 19.026 13.552 17.0171 13.552 14.539C13.552 12.0609 11.5431 10.052 9.06499 10.052C6.58689 10.052 4.578 12.0609 4.578 14.539C4.578 17.0171 6.58689 19.026 9.06499 19.026Z" fill="white"/>
<path d="M28.252 33.859C25.494 33.859 23.184 31.885 22.75 29.162C22.519 27.692 22.869 26.215 23.744 25.011C24.619 23.807 25.914 23.009 27.384 22.778C27.678 22.729 27.972 22.708 28.266 22.708C31.024 22.708 33.334 24.682 33.768 27.405C34.251 30.443 32.172 33.306 29.134 33.789C28.84 33.838 28.546 33.859 28.252 33.859Z" fill="#1D75BC"/>
<path d="M28.252 32.7671C30.7301 32.7671 32.739 30.7582 32.739 28.2801C32.739 25.802 30.7301 23.7931 28.252 23.7931C25.7739 23.7931 23.765 25.802 23.765 28.2801C23.765 30.7582 25.7739 32.7671 28.252 32.7671Z" fill="white"/>
<path d="M28.252 32.7671C30.7301 32.7671 32.739 30.7582 32.739 28.2801C32.739 25.802 30.7301 23.7931 28.252 23.7931C25.7739 23.7931 23.765 25.802 23.765 28.2801C23.765 30.7582 25.7739 32.7671 28.252 32.7671Z" fill="white"/>
<path d="M11.809 33.698C13.8425 33.698 15.491 32.0495 15.491 30.016C15.491 27.9825 13.8425 26.334 11.809 26.334C9.77551 26.334 8.12702 27.9825 8.12702 30.016C8.12702 32.0495 9.77551 33.698 11.809 33.698Z" fill="#00AEEF"/>
<path d="M24.955 17.15C26.9885 17.15 28.637 15.5015 28.637 13.468C28.637 11.4345 26.9885 9.78601 24.955 9.78601C22.9215 9.78601 21.273 11.4345 21.273 13.468C21.273 15.5015 22.9215 17.15 24.955 17.15Z" fill="#00AEEF"/>
</g>
<defs>
<linearGradient id="paint0_linear_3_3" x1="1.96992e-06" y1="21.329" x2="37.317" y2="21.329" gradientUnits="userSpaceOnUse">
<stop stop-color="#362F86"/>
<stop offset="1" stop-color="#006A9D"/>
</linearGradient>
<clipPath id="clip0_3_3">
<rect width="140" height="40.418" fill="white"/>
</clipPath>
</defs>
</svg>
