<?xml version="1.0" encoding="UTF-8"?>
<svg id="Layer_1" xmlns="http://www.w3.org/2000/svg" version="1.1" xmlns:xlink="http://www.w3.org/1999/xlink" viewBox="0 0 896 916.39">
  <!-- Generator: Adobe Illustrator 29.0.0, SVG Export Plug-In . SVG Version: 2.1.0 Build 186)  -->
  <defs>
    <style>
      .st0 {
        fill: #fff;
      }

      .st1 {
        fill: #00adee;
      }

      .st2 {
        fill: #1b75bb;
      }

      .st3 {
        fill: url(#linear-gradient);
      }
    </style>
    <linearGradient id="linear-gradient" x1="0" y1="458.2" x2="896" y2="458.2" gradientUnits="userSpaceOnUse">
      <stop offset="0" stop-color="#352f85"/>
      <stop offset="1" stop-color="#006a9b"/>
    </linearGradient>
  </defs>
  <path class="st3" d="M75.32,852.49c143.07,63.59,319.85,94.48,461.46,22.01,17.3-8.69,33.92-18.52,49.94-29.25,14.19-9.5,31.55-12.69,48.28-9.25,29.45,6.05,60.74,6.09,92.3-1.11,107.13-24.45,179.74-126.99,167.32-236.18-14.07-123.68-127.95-209.45-249.52-190.49-44.02,6.87-83.05,26.84-113.72,55.33-14.09,13.09-35.32,14.76-50.89,3.47l-51.61-37.43c-15.16-11-20.72-31.12-13.06-48.21,15.94-35.56,22.56-75.7,17.06-116.77-1.03-7.68-2.44-15.2-4.22-22.56-2.85-11.77-2.05-24.21,2.33-35.5,14.87-38.35,41.52-71.82,78.5-91.37,77.61-37.76,173.48-36.54,252.73-1.16,22.63,10.1,37.47,32.83,36.78,57.6-.28,10.03,17.96,22.66,20.3,32.98V63.9C676.23.3,500.83-30.58,359.22,41.88c-17.3,8.69-33.92,18.52-49.94,29.25-14.19,9.5-31.55,12.69-48.28,9.25-29.45-6.05-60.74-6.09-92.31,1.12C61.57,105.95-11.04,208.49,1.38,317.68c14.07,123.68,127.95,209.45,249.52,190.49,34.44-5.37,65.83-18.77,92.55-37.99,14.01-10.07,33.01-9.65,46.98.47l65.12,47.23c13.82,10.02,19.5,27.68,14.62,44.04-8.46,28.38-11.21,58.85-7.06,89.86,1.03,7.68,2.44,15.2,4.22,22.56,2.85,11.77,2.05,24.21-2.33,35.5-14.87,38.35-41.52,71.82-78.5,91.37-77.62,37.76-173.49,36.54-252.74,1.15-22.62-10.1-56.12-106.83-58.45-117.12v167.26Z"/>
  <ellipse class="st0" cx="217.65" cy="295.12" rx="107.71" ry="107.69"/>
  <ellipse class="st0" cx="678.44" cy="625.05" rx="107.71" ry="107.7"/>
  <path class="st2" d="M217.52,429.03c-66.14,0-121.7-47.46-132.11-112.84-5.62-35.32,2.84-70.72,23.84-99.67,21-28.95,52.02-48,87.34-53.62,7.01-1.11,14.14-1.68,21.19-1.68,66.14,0,121.7,47.46,132.11,112.85,5.63,35.32-2.84,70.71-23.84,99.66-21,28.95-52.02,48-87.34,53.62-7.01,1.11-14.14,1.68-21.19,1.68Z"/>
  <ellipse class="st0" cx="217.65" cy="295.12" rx="107.71" ry="107.69"/>
  <ellipse class="st0" cx="217.65" cy="295.12" rx="107.71" ry="107.69"/>
  <path class="st2" d="M678.31,758.98c-66.14,0-121.7-47.47-132.12-112.86-5.63-35.32,2.84-70.73,23.84-99.68,21-28.95,52.02-48,87.35-53.62,7.01-1.11,14.14-1.68,21.19-1.68,66.14,0,121.7,47.47,132.12,112.85,11.61,72.92-38.26,141.69-111.18,153.31-7.01,1.11-14.14,1.68-21.19,1.68Z"/>
  <ellipse class="st0" cx="678.44" cy="625.05" rx="107.71" ry="107.7"/>
  <ellipse class="st0" cx="678.44" cy="625.05" rx="107.71" ry="107.7"/>
  <circle class="st1" cx="283.63" cy="666.79" r="88.43"/>
  <circle class="st1" cx="599.27" cy="269.4" r="88.43"/>
</svg>