<svg width="150" height="150" viewBox="0 0 150 150" fill="none" xmlns="http://www.w3.org/2000/svg">
<g clip-path="url(#clip0_5_63)">
<path d="M37.569 131.265C33.555 131.265 29.535 131.163 25.524 131.298C22.527 131.4 21.282 130.227 21.339 127.179C21.462 120.603 21.3 114.018 21.42 107.442C21.456 105.39 20.886 104.025 19.323 102.591C10.068 94.101 8.00998 80.727 14.103 69.909C20.106 59.253 32.691 53.964 44.454 57.156C56.355 60.384 64.566 71.373 64.221 83.79C64.008 91.419 60.954 97.83 55.278 102.9C53.982 104.058 53.478 105.171 53.502 106.881C53.595 113.682 53.475 120.486 53.568 127.287C53.607 130.128 52.494 131.37 49.611 131.292C45.6 131.181 41.583 131.265 37.566 131.265H37.569ZM37.278 101.787C39.396 101.787 41.55 101.541 43.626 101.838C47.655 102.417 50.43 100.473 52.977 97.806C59.829 90.627 60.834 79.602 55.386 71.286C49.935 62.967 39.429 59.487 30.105 62.91C20.748 66.345 14.895 75.813 16.167 85.605C16.869 90.999 19.434 95.379 23.316 99.222C26.58 102.453 30.447 101.688 34.266 101.781C35.268 101.805 36.273 101.784 37.278 101.784V101.787ZM37.398 125.895C40.293 125.895 43.188 125.823 46.077 125.925C47.598 125.979 48.24 125.622 48.204 123.93C48.096 119.037 48.114 114.138 48.195 109.242C48.219 107.715 47.877 107.091 46.194 107.121C40.407 107.22 34.62 107.202 28.833 107.13C27.315 107.112 26.67 107.436 26.706 109.125C26.814 114.018 26.835 118.92 26.697 123.813C26.643 125.736 27.453 125.985 29.049 125.925C31.827 125.823 34.614 125.898 37.395 125.898L37.398 125.895Z" fill="#028EEE"/>
<path d="M77.742 61.599C73.188 61.656 69.429 57.78 69.621 53.226C69.813 48.672 73.98 44.742 78.39 45.714C81.027 46.296 82.281 45.288 83.739 43.713C84.876 42.486 86.046 41.283 87.291 40.167C88.53 39.054 89.022 38.04 88.566 36.18C87.678 32.574 89.832 28.944 93.201 27.459C96.513 26.001 100.404 26.745 102.465 29.823C103.788 31.8 105.195 32.391 107.364 32.163C108.798 32.013 110.271 32.037 111.711 32.157C114.036 32.352 115.794 32.016 117.231 29.7C118.725 27.294 121.506 26.178 124.269 26.958C126.432 27.57 127.563 26.826 128.811 25.419C129.846 24.252 130.959 23.142 132.129 22.116C133.788 20.664 134.595 19.314 134.079 16.752C133.185 12.315 137.109 8.19 141.663 8.034C146.223 7.875 150.063 11.658 149.976 16.215C149.889 20.772 145.818 24.756 141.378 23.946C138.744 23.466 137.238 24.195 135.741 26.037C134.901 27.072 133.911 27.996 132.906 28.875C131.34 30.246 130.443 31.497 131.061 33.951C131.922 37.362 129.549 40.842 126.234 42.219C122.877 43.614 119.046 42.81 117.021 39.678C115.767 37.74 114.378 37.347 112.389 37.485C110.946 37.584 109.485 37.584 108.042 37.485C105.63 37.323 103.74 37.548 102.234 40.059C100.788 42.471 97.896 43.452 95.145 42.648C93.087 42.045 92.058 42.777 90.891 44.097C89.934 45.183 88.911 46.227 87.813 47.169C85.974 48.744 85.002 50.244 85.527 53.055C86.355 57.492 82.305 61.539 77.748 61.596L77.742 61.599ZM144.612 16.215C144.528 14.628 143.736 13.59 142.215 13.455C140.523 13.305 139.428 14.241 139.323 15.954C139.227 17.514 140.163 18.525 141.669 18.672C143.373 18.837 144.33 17.838 144.612 16.215ZM96.357 37.485C97.881 37.332 98.922 36.558 99.015 35.013C99.117 33.303 98.13 32.226 96.432 32.202C94.728 32.178 93.726 33.228 93.777 34.944C93.825 36.501 94.851 37.287 96.357 37.485ZM125.862 34.89C125.73 33.312 124.92 32.295 123.39 32.199C121.689 32.094 120.627 33.063 120.567 34.776C120.513 36.336 121.47 37.323 122.985 37.428C124.695 37.545 125.622 36.525 125.859 34.887L125.862 34.89ZM80.319 53.517C80.1 51.972 79.278 50.97 77.73 50.949C76.026 50.925 75 51.927 75.024 53.643C75.045 55.194 76.023 56.148 77.556 56.184C79.272 56.22 80.154 55.17 80.319 53.517Z" fill="#028EEE"/>
<path d="M128.541 77.481C128.541 70.005 128.619 62.532 128.502 55.059C128.457 52.077 129.522 50.76 132.597 50.853C137.166 50.991 141.744 50.934 146.319 50.871C148.827 50.835 150.006 51.876 150 54.447C149.967 69.954 149.967 85.461 150 100.968C150.006 103.569 148.734 104.529 146.262 104.496C141.801 104.433 137.334 104.364 132.876 104.517C129.741 104.625 128.436 103.473 128.499 100.239C128.64 92.655 128.544 85.068 128.544 77.481H128.541ZM133.908 77.67C133.908 82.236 133.908 86.805 133.908 91.371C133.908 99.219 133.908 99.132 141.924 99.165C144.117 99.174 144.693 98.583 144.669 96.405C144.555 85.713 144.618 75.018 144.618 64.323C144.618 56.013 144.618 56.079 136.266 56.202C134.376 56.229 133.833 56.736 133.866 58.62C133.977 64.968 133.908 71.319 133.908 77.667V77.67Z" fill="#028EEE"/>
<path d="M101.751 83.037C101.751 77.235 101.823 71.433 101.718 65.631C101.667 62.832 102.669 61.497 105.606 61.572C110.178 61.686 114.756 61.668 119.328 61.578C121.974 61.527 123.228 62.529 123.216 65.292C123.159 77.118 123.168 88.944 123.213 100.77C123.222 103.257 122.259 104.514 119.67 104.487C114.873 104.436 110.073 104.436 105.276 104.487C102.69 104.514 101.706 103.269 101.73 100.776C101.793 94.863 101.751 88.95 101.751 83.037ZM117.828 83.274C117.828 80.49 117.828 77.706 117.828 74.922C117.828 66.828 117.828 66.942 109.701 66.897C107.31 66.885 107.049 67.785 107.079 69.777C107.178 76.791 107.118 83.805 107.118 90.819C107.118 99.399 107.118 99.315 115.578 99.168C117.63 99.132 117.903 98.373 117.861 96.633C117.759 92.181 117.828 87.726 117.825 83.274H117.828Z" fill="#028EEE"/>
<path d="M96.402 88.473C96.402 92.601 96.357 96.729 96.42 100.854C96.459 103.392 95.328 104.52 92.793 104.49C87.996 104.436 83.199 104.451 78.402 104.484C76.032 104.499 74.94 103.407 74.949 101.028C74.979 92.55 74.967 84.072 74.958 75.594C74.955 73.383 76.017 72.309 78.228 72.315C83.136 72.327 88.044 72.342 92.952 72.306C95.322 72.288 96.432 73.374 96.411 75.753C96.372 79.992 96.399 84.231 96.402 88.47V88.473ZM91.035 88.68V85.677C91.035 76.713 91.038 76.752 81.954 77.643C80.616 77.775 80.298 78.213 80.307 79.44C80.352 85.446 80.337 91.452 80.316 97.458C80.313 98.472 80.451 99.171 81.726 99.123C84.708 99.009 88.188 99.873 90.504 98.595C92.151 97.686 90.858 93.867 91.026 91.35C91.086 90.465 91.035 89.571 91.035 88.68Z" fill="#028EEE"/>
<path d="M58.929 13.392C48.009 13.392 37.086 13.392 26.166 13.389C25.275 13.389 24.357 13.47 23.502 13.281C22.176 12.99 21.378 12.099 21.402 10.662C21.426 9.22799 22.245 8.38199 23.583 8.10899C24.336 7.95599 25.137 8.02499 25.917 8.02499C47.871 8.02199 69.822 8.02199 91.776 8.02499C92.556 8.02499 93.348 7.96799 94.113 8.08799C95.493 8.30399 96.309 9.18899 96.357 10.581C96.411 12.135 95.571 13.131 94.029 13.326C92.931 13.464 91.803 13.392 90.69 13.392C80.103 13.395 69.516 13.392 58.932 13.392H58.929Z" fill="#028EEE"/>
<path d="M101.985 136.611C113.016 136.611 124.05 136.623 135.081 136.602C137.082 136.599 139.17 136.626 139.188 139.272C139.206 141.915 137.139 141.99 135.123 141.99C112.836 141.975 90.549 141.975 68.262 141.99C66.222 141.99 64.218 141.804 64.314 139.152C64.401 136.728 66.324 136.605 68.22 136.608C79.476 136.623 90.729 136.617 101.985 136.617V136.611Z" fill="#028EEE"/>
<path d="M10.671 27.924C10.671 25.815 10.641 23.706 10.683 21.6C10.716 19.923 11.547 18.819 13.29 18.783C15.033 18.747 15.978 19.806 15.999 21.486C16.056 25.923 16.053 30.363 15.999 34.8C15.978 36.516 14.937 37.509 13.239 37.44C11.538 37.371 10.68 36.288 10.671 34.581C10.662 32.361 10.671 30.144 10.671 27.924Z" fill="#028EEE"/>
<path d="M29.232 24.099C27.57 24.099 25.905 24.138 24.243 24.087C22.584 24.036 21.462 23.238 21.42 21.483C21.378 19.728 22.455 18.807 24.117 18.774C27.663 18.705 31.212 18.708 34.758 18.774C36.462 18.804 37.467 19.818 37.404 21.528C37.338 23.241 36.24 24.078 34.551 24.099C32.778 24.12 31.005 24.105 29.229 24.102L29.232 24.099Z" fill="#028EEE"/>
<path d="M149.976 123.408C149.976 125.07 150.006 126.735 149.964 128.397C149.922 130.068 149.1 131.178 147.36 131.217C145.62 131.256 144.681 130.191 144.651 128.514C144.585 124.968 144.591 121.419 144.651 117.873C144.681 116.157 145.713 115.17 147.411 115.236C149.115 115.302 149.97 116.382 149.979 118.089C149.988 119.862 149.979 121.638 149.979 123.411L149.976 123.408Z" fill="#028EEE"/>
<path d="M131.379 125.904C133.041 125.904 134.706 125.874 136.368 125.913C138.027 125.952 139.161 126.729 139.224 128.481C139.287 130.233 138.225 131.187 136.56 131.223C133.014 131.304 129.465 131.292 125.919 131.232C124.227 131.202 123.192 130.224 123.237 128.505C123.282 126.786 124.365 125.934 126.057 125.907C127.83 125.88 129.603 125.901 131.379 125.901V125.904Z" fill="#028EEE"/>
<path d="M37.386 141.957C35.613 141.957 33.834 142.035 32.067 141.933C30.393 141.837 29.379 140.886 29.454 139.14C29.523 137.565 30.522 136.683 32.037 136.656C35.694 136.587 39.354 136.578 43.008 136.668C44.553 136.707 45.438 137.736 45.45 139.278C45.459 140.82 44.58 141.822 43.038 141.915C41.16 142.029 39.273 141.942 37.389 141.942C37.389 141.948 37.389 141.951 37.389 141.957H37.386Z" fill="#028EEE"/>
<path d="M13.458 13.419C11.658 13.119 10.602 12.225 10.722 10.503C10.827 8.979 11.838 8.028 13.38 8.082C15.075 8.139 16.065 9.198 15.972 10.905C15.888 12.465 14.772 13.161 13.461 13.419H13.458Z" fill="#028EEE"/>
<path d="M48.204 21.336C47.904 23.133 46.98 24.177 45.273 24.039C43.77 23.919 42.801 22.914 42.87 21.363C42.945 19.662 44.019 18.69 45.717 18.798C47.262 18.897 47.985 19.995 48.204 21.339V21.336Z" fill="#028EEE"/>
<path d="M37.647 45.531C39.246 45.873 40.272 46.806 40.068 48.525C39.888 50.034 38.847 50.958 37.305 50.832C35.622 50.691 34.662 49.596 34.848 47.892C35.016 46.368 36.081 45.615 37.647 45.534V45.531Z" fill="#028EEE"/>
<path d="M13.359 55.956C13.221 57.774 12.363 58.854 10.656 58.872C9.12001 58.887 8.11801 57.93 8.04601 56.4C7.96501 54.69 8.98201 53.664 10.68 53.622C12.255 53.583 13.017 54.651 13.359 55.959V55.956Z" fill="#028EEE"/>
<path d="M2.66098 80.352C4.28998 80.598 5.35198 81.483 5.24998 83.208C5.15998 84.735 4.15498 85.692 2.61898 85.659C0.923977 85.623 -0.0780227 84.57 0.00297732 82.863C0.0779773 81.318 1.11898 80.535 2.66098 80.355V80.352Z" fill="#028EEE"/>
<path d="M13.347 109.899C13.089 111.522 12.177 112.569 10.464 112.446C8.95501 112.338 7.98901 111.339 8.04001 109.788C8.09701 108.081 9.17101 107.1 10.866 107.205C12.39 107.301 13.2 108.33 13.344 109.902L13.347 109.899Z" fill="#028EEE"/>
<path d="M66.957 109.74C66.657 111.537 65.733 112.581 64.026 112.443C62.523 112.323 61.557 111.318 61.623 109.764C61.695 108.057 62.772 107.091 64.47 107.199C66.015 107.298 66.738 108.396 66.957 109.737V109.74Z" fill="#028EEE"/>
<path d="M117.831 128.652C117.573 130.275 116.661 131.322 114.948 131.199C113.439 131.091 112.473 130.092 112.524 128.541C112.581 126.834 113.655 125.853 115.35 125.958C116.874 126.054 117.684 127.083 117.828 128.652H117.831Z" fill="#028EEE"/>
<path d="M149.979 139.368C149.721 140.991 148.809 142.038 147.096 141.915C145.587 141.807 144.621 140.808 144.672 139.257C144.729 137.55 145.803 136.569 147.498 136.674C149.022 136.77 149.832 137.799 149.976 139.371L149.979 139.368Z" fill="#028EEE"/>
<path d="M29.298 83.01C30.975 83.259 32.004 84.054 32.04 85.602C32.079 87.309 31.053 88.365 29.364 88.326C27.678 88.29 26.694 87.195 26.799 85.491C26.895 83.931 28.011 83.244 29.298 83.01Z" fill="#028EEE"/>
<path d="M45.576 88.395C43.938 88.218 42.855 87.375 42.87 85.653C42.885 84.111 43.86 83.133 45.384 83.094C47.082 83.049 48.117 84.063 48.114 85.77C48.114 87.321 47.094 88.131 45.576 88.395Z" fill="#028EEE"/>
<path d="M37.539 96.432C35.901 96.255 34.818 95.412 34.833 93.69C34.848 92.148 35.823 91.17 37.347 91.131C39.045 91.086 40.08 92.1 40.077 93.807C40.077 95.358 39.057 96.168 37.539 96.432Z" fill="#028EEE"/>
</g>
<defs>
<clipPath id="clip0_5_63">
<rect width="150" height="150" fill="white"/>
</clipPath>
</defs>
</svg>
