<svg width="150" height="150" viewBox="0 0 150 150" fill="none" xmlns="http://www.w3.org/2000/svg">
<g clip-path="url(#clip0_5_64)">
<path d="M107.034 85.536C107.967 84.3 108.699 82.461 110.004 81.846C111.393 81.192 113.331 81.699 115.197 81.699V79.686C115.197 67.338 115.197 54.993 115.197 42.645C115.197 39.741 115.869 39.054 118.719 39.051C123.105 39.048 127.491 39.045 131.874 39.051C134.415 39.057 135.192 39.849 135.192 42.42C135.192 57.087 135.201 71.751 135.177 86.415C135.177 87.378 135.387 88.029 136.164 88.725C138.186 90.54 140.046 92.538 141.975 94.455C142.917 95.391 143.19 96.531 142.497 97.617C140.937 100.059 141.225 102.249 142.377 104.874C143.322 107.028 144.459 108.255 146.646 108.906C148.863 109.566 149.124 110.136 149.124 112.431C149.124 114.801 149.085 117.168 149.139 119.538C149.172 121.047 148.617 122.139 147.129 122.493C144.525 123.114 143.193 124.656 142.164 127.203C141.198 129.597 141.051 131.472 142.368 133.614C143.214 134.988 142.914 136.263 141.705 137.406C139.911 139.101 138.174 140.862 136.464 142.641C135.411 143.733 134.205 144.087 132.936 143.289C130.638 141.849 128.613 142.056 126.099 143.139C123.801 144.132 122.409 145.284 121.749 147.672C121.194 149.679 120.51 149.985 118.413 149.991C115.944 149.994 113.472 149.973 111.003 150C109.617 150.015 108.582 149.442 108.276 148.098C107.655 145.347 105.981 143.991 103.35 142.956C101.118 142.077 99.3991 141.966 97.3351 143.085C95.3131 144.183 94.743 143.961 93.093 142.314C91.416 140.64 89.769 138.939 88.059 137.298C86.955 136.239 86.751 135.09 87.42 133.752C87.786 133.02 88.101 132.357 87.372 131.586C87.081 131.277 87.063 130.65 87.036 130.161C86.985 129.207 87.018 128.247 87.018 127.29C87.015 124.383 86.8081 124.089 84.0511 123.042C83.4391 122.811 82.689 122.712 82.26 122.289C81.633 121.671 80.856 120.84 80.808 120.057C80.634 117.246 80.739 114.417 80.739 111.594C80.739 110.457 81.291 109.68 82.305 109.233C82.902 108.969 83.526 108.765 84.138 108.537C86.742 107.556 87.018 107.166 87.018 104.367C87.018 93.834 87.018 83.301 87.018 72.768C87.018 67.377 87.012 61.983 87.021 56.592C87.027 54.168 87.75 53.451 90.18 53.445C94.767 53.436 99.354 53.433 103.941 53.445C106.221 53.451 107.025 54.255 107.025 56.55C107.034 65.772 107.028 74.994 107.028 84.219C107.028 84.741 107.028 85.26 107.028 85.542L107.034 85.536ZM112.08 145.155C113.01 145.155 113.664 145.155 114.315 145.155C117.543 145.155 117.573 145.167 118.707 142.182C119.148 141.021 119.805 140.271 121.029 139.83C123.291 139.014 125.457 137.937 127.719 137.124C128.544 136.827 129.552 136.839 130.437 136.971C131.205 137.088 131.952 137.517 132.648 137.913C133.482 138.387 134.133 138.351 134.73 137.556C135 137.196 135.36 136.905 135.678 136.584C137.556 134.7 137.619 134.67 136.431 132.216C135.681 130.665 135.708 129.351 136.593 127.818C137.514 126.222 138.267 124.467 138.735 122.688C139.2 120.924 140.106 119.934 141.813 119.367C144.315 118.536 144.288 118.455 144.288 115.698C144.288 113.133 144.318 113.043 141.912 112.26C140.151 111.687 139.176 110.697 138.729 108.855C138.33 107.214 137.664 105.573 136.788 104.133C135.726 102.39 135.474 100.779 136.62 99.081C137.688 97.497 137.451 96.234 135.867 95.196C135.825 95.169 135.795 95.127 135.759 95.091C133.863 93.195 133.821 93.111 131.415 94.293C129.795 95.088 128.412 95.07 126.888 94.083C125.844 93.408 124.665 92.778 123.465 92.538C120.444 91.935 118.476 90.417 117.867 87.288C117.804 86.961 117.21 86.526 116.841 86.502C115.338 86.412 113.826 86.466 112.299 86.466C111.936 87.39 111.537 88.212 111.291 89.076C110.829 90.699 109.821 91.572 108.165 91.959C106.806 92.277 105.36 92.682 104.241 93.462C101.775 95.181 99.438 95.199 96.99 93.597C96.345 93.174 95.802 93.237 95.304 93.876C94.965 94.308 94.53 94.668 94.137 95.058C92.301 96.891 92.229 96.927 93.399 99.297C94.191 100.902 94.155 102.252 93.24 103.833C92.316 105.426 91.5961 107.19 91.1101 108.969C90.6481 110.661 89.784 111.642 88.134 112.206C85.551 113.088 85.575 113.163 85.575 115.818C85.575 118.473 85.56 118.482 88.014 119.373C89.403 119.877 90.453 120.513 90.963 122.076C91.677 124.263 92.784 126.318 93.534 128.493C93.849 129.405 93.987 130.599 93.669 131.469C92.448 134.802 92.421 134.724 94.779 137.235C95.691 138.207 96.474 138.483 97.602 137.742C99.681 136.377 101.718 136.389 103.734 137.934C104.202 138.294 104.79 138.57 105.366 138.702C108.906 139.515 111.888 140.904 112.077 145.161L112.08 145.155ZM120.144 43.971C120.099 44.283 120.045 44.478 120.045 44.673C120.039 56.712 120.039 68.754 120.045 80.793C120.045 81.126 120.105 81.498 120.261 81.789C121.023 83.223 121.77 84.666 122.637 86.034C123.024 86.646 123.594 87.249 124.227 87.576C125.517 88.242 126.927 88.671 128.25 89.283C130.038 90.111 130.353 89.946 130.353 87.984C130.353 73.827 130.353 59.673 130.353 45.516C130.353 45.027 130.311 44.535 130.287 43.971H120.147H120.144ZM91.962 58.347V90.12C92.208 90.003 92.376 89.979 92.445 89.88C94.146 87.513 96.204 87.534 98.487 88.944C98.742 89.1 99.036 89.196 99.312 89.316C101.229 90.15 102.192 89.553 102.192 87.519C102.192 78.297 102.192 69.075 102.192 59.856V58.347H91.959H91.962Z" fill="#028EEE"/>
<path d="M58.818 100.236C58.818 90.612 58.818 80.985 58.818 71.361C58.818 68.358 59.451 67.731 62.454 67.728C66.84 67.728 71.223 67.722 75.609 67.728C78.006 67.731 78.852 68.523 78.852 70.863C78.861 90.465 78.861 110.07 78.852 129.672C78.852 132.045 78.048 132.819 75.651 132.825C71.064 132.834 66.477 132.837 61.89 132.825C59.607 132.819 58.824 132.039 58.821 129.717C58.809 119.889 58.815 110.064 58.815 100.236H58.818ZM63.762 72.63V127.875H73.92V72.63H63.762Z" fill="#028EEE"/>
<path d="M97.749 29.835C95.898 29.916 94.491 29.979 93.084 30.042C91.257 30.123 90.171 29.319 90.084 27.828C89.997 26.352 90.864 25.377 92.607 25.257C96.528 24.987 100.455 24.765 104.382 24.609C106.134 24.54 107.208 25.827 106.962 27.564C106.419 31.404 105.846 35.238 105.261 39.069C105.012 40.707 103.917 41.607 102.498 41.409C101.097 41.214 100.263 40.002 100.473 38.391C100.674 36.852 100.917 35.316 101.205 33.345C99.654 34.68 98.424 35.754 97.179 36.807C73.596 56.775 47.301 72.21 18.675 83.736C14.103 85.578 9.456 87.237 4.833 88.953C2.883 89.676 1.578 89.25 1.026 87.792C0.480002 86.355 1.227 85.119 3.159 84.438C18.954 78.879 34.233 72.165 48.912 64.098C65.88 54.768 81.738 43.842 96.351 31.125C96.717 30.804 97.068 30.468 97.752 29.838L97.749 29.835Z" fill="#028EEE"/>
<path d="M50.658 108.345C50.658 115.353 50.661 122.358 50.658 129.366C50.658 132.168 49.986 132.828 47.172 132.831C42.684 132.834 38.199 132.84 33.711 132.828C31.434 132.822 30.624 132.018 30.621 129.72C30.612 115.404 30.612 101.088 30.621 86.772C30.621 84.483 31.434 83.697 33.738 83.691C38.376 83.679 43.014 83.676 47.652 83.691C49.839 83.697 50.643 84.498 50.649 86.724C50.667 93.933 50.655 101.142 50.655 108.348L50.658 108.345ZM35.52 127.869H45.717V88.644H35.52V127.869Z" fill="#028EEE"/>
<path d="M133.17 31.893C132.822 31.74 132.096 31.518 131.475 31.131C129.681 30.015 127.902 28.869 126.177 27.654C125.427 27.126 124.899 27.174 124.17 27.687C122.439 28.899 120.633 30 118.875 31.17C117.57 32.037 116.238 32.223 114.954 31.242C113.736 30.312 113.511 29.052 113.946 27.588C114.546 25.566 114.993 23.496 115.62 21.483C115.89 20.616 115.752 20.112 115.035 19.569C113.313 18.261 111.66 16.857 109.965 15.513C108.831 14.616 108.285 13.488 108.693 12.069C109.119 10.581 110.229 9.888 111.735 9.804C113.946 9.681 116.157 9.54 118.371 9.48C119.205 9.456 119.607 9.153 119.883 8.358C120.594 6.318 121.419 4.32 122.172 2.292C122.697 0.873 123.642 0 125.19 0C126.747 0 127.683 0.909 128.208 2.304C128.937 4.233 129.732 6.138 130.362 8.097C130.701 9.147 131.268 9.489 132.315 9.501C134.277 9.528 136.239 9.642 138.198 9.768C140.259 9.9 141.24 10.572 141.675 12.084C142.137 13.692 141.342 14.781 140.16 15.717C138.621 16.935 137.13 18.219 135.552 19.383C134.706 20.01 134.445 20.595 134.787 21.654C135.462 23.757 136.002 25.908 136.515 28.059C136.995 30.075 135.564 31.875 133.17 31.89V31.893ZM119.742 24.792C121.047 23.949 122.085 23.331 123.06 22.635C124.53 21.585 125.937 21.657 127.383 22.671C128.334 23.34 129.327 23.952 130.608 24.789C130.224 23.304 130.005 22.224 129.663 21.186C129.039 19.299 129.537 17.859 131.157 16.722C132.039 16.104 132.84 15.369 133.968 14.451C132.345 14.352 131.145 14.241 129.945 14.217C128.283 14.181 127.209 13.41 126.651 11.847C126.237 10.686 125.754 9.546 125.175 8.073C124.599 9.561 124.137 10.704 123.711 11.862C123.141 13.41 122.067 14.19 120.399 14.22C119.211 14.241 118.023 14.358 116.421 14.457C117.69 15.489 118.644 16.272 119.604 17.049C120.828 18.039 121.26 19.26 120.798 20.802C120.438 21.996 120.153 23.214 119.739 24.795L119.742 24.792Z" fill="#028EEE"/>
<path d="M22.4521 116.073C22.4521 120.606 22.4611 125.139 22.4491 129.672C22.4431 132.093 21.7141 132.822 19.2931 132.828C14.7091 132.837 10.1251 132.84 5.54105 132.828C3.26105 132.822 2.44505 132.009 2.44205 129.735C2.43305 120.519 2.43305 111.303 2.44205 102.084C2.44205 99.735 3.28505 98.901 5.63105 98.895C10.1641 98.886 14.6971 98.886 19.2301 98.895C21.6781 98.898 22.4431 99.678 22.4461 102.174C22.4551 106.806 22.4461 111.441 22.4461 116.073H22.4521ZM17.5321 103.815H7.35905V127.899H17.5321V103.815Z" fill="#028EEE"/>
<path d="M97.512 115.995C97.275 106.548 105.051 98.583 114.726 98.358C124.176 98.139 132.177 105.948 132.369 115.581C132.558 125.067 124.788 133.014 115.14 133.206C105.633 133.395 97.755 125.7 97.509 115.998L97.512 115.995ZM114.759 128.352C121.656 128.493 127.395 122.901 127.524 115.923C127.65 109.068 121.968 103.278 115.032 103.194C108.21 103.11 102.558 108.633 102.354 115.575C102.153 122.421 107.772 128.211 114.759 128.352Z" fill="#028EEE"/>
</g>
<defs>
<clipPath id="clip0_5_64">
<rect width="150" height="150" fill="white"/>
</clipPath>
</defs>
</svg>
