<svg width="150" height="150" viewBox="0 0 150 150" fill="none" xmlns="http://www.w3.org/2000/svg">
<path d="M76.17 0C77.244 0.888 78.429 1.668 79.374 2.679C86.313 10.095 93.204 17.553 100.104 25.002C101.772 26.802 102.087 28.419 101.139 30.324C100.323 31.959 98.997 32.805 97.155 32.808C94.869 32.808 92.583 32.808 90.192 32.808V62.508C90.63 62.121 90.948 61.872 91.23 61.587C97.626 55.125 104.766 49.653 112.827 45.426C113.721 44.958 113.835 44.505 113.517 43.602C112.74 41.397 112.101 39.144 111.369 36.921C110.73 34.983 111.171 33.336 112.701 32.04C114.237 30.738 115.941 30.627 117.741 31.557C127.575 36.636 137.421 41.691 147.249 46.776C149.97 48.186 150.732 50.613 149.286 53.277C144.174 62.709 139.023 72.12 133.905 81.549C132.969 83.274 131.559 84.168 129.621 84.027C127.632 83.883 126.297 82.809 125.655 80.874C124.935 78.708 124.152 76.563 123.249 73.986C120.378 76.281 117.492 78.21 115.056 80.598C104.184 91.275 96.015 103.77 90.582 118.02C90.243 118.905 90.108 119.919 90.105 120.873C90.069 128.781 90.09 136.692 90.081 144.603C90.078 148.425 88.482 149.997 84.633 149.997C78.138 149.997 71.646 149.997 65.151 149.997C61.608 149.997 59.979 148.395 59.886 144.84C59.502 129.741 56.511 115.212 50.088 101.493C45.264 91.188 38.439 82.467 29.1 75.828C28.464 75.375 27.813 74.943 27.162 74.514C27.048 74.439 26.898 74.421 26.625 74.334C25.878 76.452 25.083 78.537 24.411 80.661C23.781 82.65 22.506 83.841 20.445 84.024C18.372 84.207 16.962 83.196 15.978 81.369C10.776 71.712 5.52301 62.079 0.282009 52.44C0.219009 52.326 0.0930093 52.245 -0.00299072 52.146C-0.00299072 51.366 -0.00299072 50.583 -0.00299072 49.803C0.876009 48.81 1.56301 47.46 2.66101 46.881C12.489 41.694 22.392 36.648 32.268 31.548C34.071 30.618 35.772 30.744 37.305 32.049C38.832 33.351 39.258 35.001 38.622 36.936C37.89 39.156 37.248 41.409 36.471 43.614C36.15 44.529 36.3 44.958 37.185 45.423C45.231 49.668 52.389 55.116 58.773 61.59C59.055 61.875 59.376 62.118 59.799 62.484V32.802C57.402 32.802 55.116 32.802 52.827 32.802C50.913 32.802 49.563 31.884 48.783 30.18C47.877 28.2 48.441 26.535 49.887 24.984C56.814 17.562 63.69 10.089 70.626 2.676C71.568 1.671 72.753 0.888 73.824 0C74.604 0 75.387 0 76.167 0H76.17ZM19.173 68.82C19.443 68.103 19.62 67.653 19.782 67.197C21.138 63.357 23.58 62.391 27.168 64.317C37.449 69.828 45.678 77.586 52.119 87.261C61.038 100.656 65.466 115.656 67.656 131.421C68.103 134.64 68.373 137.883 68.724 141.117H80.976C80.847 139.32 80.742 137.622 80.598 135.927C79.461 122.487 76.716 109.413 71.49 96.933C64.821 81.006 54.894 67.599 40.551 57.762C36.993 55.32 33.072 53.394 29.262 51.33C26.802 49.995 25.92 48.231 26.652 45.552C26.757 45.165 26.832 44.766 26.964 44.166C21.318 47.079 15.885 49.884 10.398 52.713C13.341 58.119 16.182 63.336 19.167 68.82H19.173ZM62.859 23.946C63.81 24 64.446 23.973 65.058 24.084C67.392 24.504 68.691 26.316 68.694 29.166C68.703 43.464 68.685 57.762 68.733 72.06C68.736 72.966 69.027 74.007 69.525 74.754C73.902 81.306 77.526 88.245 80.436 95.562C80.601 95.979 80.817 96.375 81.009 96.78C81.105 96.756 81.198 96.735 81.294 96.711V94.989C81.294 73.323 81.294 51.657 81.294 29.991C81.294 29.358 81.276 28.719 81.336 28.089C81.558 25.77 83.247 24.156 85.566 24.024C85.983 24 86.403 24.021 87.204 24.021C83.001 19.488 79.05 15.225 75 10.854C70.944 15.228 67.008 19.47 62.859 23.946ZM123.018 44.166C123.117 44.646 123.159 44.922 123.231 45.192C124.104 48.33 123.321 50.118 120.396 51.474C108.507 56.985 98.793 65.172 90.846 75.516C90.39 76.11 90.123 77.01 90.117 77.772C90.06 84.066 90.084 90.36 90.09 96.657C90.09 97.113 90.147 97.569 90.204 98.409C90.63 97.782 90.828 97.476 91.038 97.179C94.629 92.079 98.037 86.838 101.853 81.912C107.694 74.379 114.942 68.421 123.417 64.011C126.225 62.55 128.913 63.624 130.008 66.597C130.251 67.26 130.479 67.929 130.809 68.856C133.812 63.333 136.683 58.056 139.587 52.713C133.995 49.833 128.598 47.049 123.018 44.175V44.166Z" fill="#028EEE"/>
</svg>
