<svg width="150" height="150" viewBox="0 0 150 150" fill="none" xmlns="http://www.w3.org/2000/svg">
<g clip-path="url(#clip0_5_6)">
<path d="M132.302 30.1235C125.012 32.7452 121.04 28.0149 116.627 24.0019C114.209 21.8037 111.26 20.2393 108.716 18.174C107.591 17.2588 106.877 15.8088 105.974 14.6031C107.384 14.0837 108.788 13.1469 110.207 13.1159C117.401 12.9645 124.598 13.0448 132.308 13.0448C132.308 10.9177 132.143 8.95759 132.377 7.0531C132.497 6.07612 133.142 4.81779 133.916 4.39731C134.471 4.09742 135.892 4.72194 136.474 5.36811C140.755 10.1232 144.913 14.9957 149.131 19.8126C150.406 21.2688 150.208 22.5704 148.993 23.9524C144.838 28.6858 140.761 33.4934 136.534 38.1619C135.907 38.8545 134.414 39.4604 133.736 39.1482C133.004 38.8112 132.491 37.3859 132.365 36.3718C132.149 34.6312 132.305 32.838 132.305 30.1235H132.302ZM136.768 12.2472C136.387 17.3454 136.279 17.4536 132.185 17.466C129.647 17.4722 127.112 17.466 124.574 17.466C121.844 17.466 119.114 17.466 115.727 17.466C118.181 19.5622 120.215 20.8823 121.712 22.6755C124.205 25.6621 127.166 26.6391 130.844 26.2155C132.326 26.0455 134.201 25.8384 135.272 26.5927C136.306 27.3193 136.543 29.2609 137.212 30.8686C139.855 27.8201 142.453 24.8243 145.084 21.7944C142.294 18.5914 139.75 15.6697 136.768 12.2472Z" fill="#028EEE"/>
<path d="M17.3004 123.23C17.7864 123.496 17.9754 123.697 18.1284 123.669C24.0532 122.581 28.2201 125.463 32.198 129.618C34.7209 132.255 38.1408 133.959 41.0237 136.259C42.1006 137.115 42.7996 138.476 43.6696 139.607C42.2956 140.176 40.9337 141.2 39.5477 141.237C33.2569 141.413 26.9571 141.314 20.6633 141.314C19.6704 141.314 18.6804 141.314 17.2974 141.314C17.2974 143.565 17.4414 145.537 17.2344 147.47C17.1385 148.369 16.5385 149.637 15.8485 149.918C15.1705 150.196 13.7966 149.726 13.2356 149.099C8.88272 144.27 4.56887 139.394 0.474002 134.336C-0.125978 133.597 -0.0269811 131.383 0.611998 130.595C4.64986 125.623 8.89772 120.825 13.1786 116.07C13.7546 115.427 15.2095 114.812 15.7315 115.124C16.5025 115.582 17.1115 116.84 17.2374 117.832C17.4714 119.66 17.3034 121.542 17.3034 123.227L17.3004 123.23ZM33.8809 136.896C31.544 134.905 29.585 133.668 28.1811 131.949C25.4902 128.66 22.2143 127.692 18.2334 128.143C16.8595 128.301 15.0685 128.434 14.1326 127.689C13.1756 126.928 13.0376 125.079 12.4496 123.459C9.78269 126.514 7.17578 129.504 4.50887 132.561C7.29578 135.749 9.87869 138.704 12.7676 142.01C13.1116 138.609 14.7375 136.905 17.6454 136.899C22.8023 136.893 27.9621 136.899 33.8809 136.899V136.896Z" fill="#028EEE"/>
<path d="M17.2914 30.8686C17.2914 32.9802 17.4474 34.9713 17.2194 36.916C17.1174 37.7847 16.4065 38.8977 15.6715 39.2657C15.1225 39.5408 13.8356 39.0431 13.3196 38.4649C8.91571 33.5367 4.53886 28.5714 0.359999 23.4423C-0.197982 22.759 -0.0839858 20.6752 0.521994 19.9363C4.58086 14.9741 8.81072 10.1603 13.1126 5.41757C13.7306 4.73739 15.1285 4.27982 15.9625 4.50551C16.5775 4.67246 17.1444 6.09156 17.2434 7.00671C17.4384 8.85864 17.3034 10.7477 17.3034 13.0479C18.7224 13.0479 19.9043 13.0479 21.0893 13.0479C38.8727 13.0479 56.6561 12.9861 74.4395 13.0665C105.29 13.2056 130.676 34.9342 136.069 66.247C139.315 85.0911 134.807 102.191 123.296 117.217C122.402 118.386 120.47 119.22 118.979 119.295C113.909 119.548 108.818 119.502 103.743 119.316C102.441 119.267 101.172 118.274 99.8877 117.715C100.629 116.577 101.145 115.149 102.141 114.348C128.021 93.5036 125.351 53.2031 96.9238 36.5511C90.822 32.9771 84.2312 30.7696 77.2054 30.7109C57.6971 30.5532 38.1857 30.6305 18.6744 30.6212C18.3804 30.6212 18.0894 30.7233 17.2914 30.8686ZM108.17 114.966C111.782 114.966 114.614 115.167 117.398 114.877C118.7 114.741 120.35 113.989 121.094 112.947C131.009 99.1182 134.801 83.6132 131.795 66.6984C126.629 37.6301 103.023 17.568 74.2655 17.4753C55.7771 17.4134 37.2918 17.4691 18.8034 17.4505C17.2944 17.4505 15.4465 17.7782 14.3725 17.0239C13.3226 16.288 13.0616 14.3588 12.3716 12.7635C9.74969 15.7841 7.14877 18.78 4.51486 21.8129C7.31677 25.0221 9.86368 27.9407 13.0046 31.5395C12.9296 28.3797 12.8336 26.1042 16.1995 26.1259C36.6168 26.2434 57.0431 25.7951 77.4484 26.3454C105.977 27.1121 128.06 55.0829 123.818 84.1976C122.096 96.0172 117.023 105.994 108.167 114.966H108.17Z" fill="#028EEE"/>
<path d="M132.305 141.314C130.793 141.314 129.698 141.314 128.6 141.314C110.816 141.314 93.0329 141.376 75.2495 141.298C44.3475 141.159 19.0014 119.511 13.5566 88.1921C10.2807 69.3512 14.7745 52.2478 26.2611 37.2035C27.1581 36.0287 29.069 35.1506 30.557 35.0733C35.5218 34.8105 40.5137 34.8569 45.4875 35.0455C46.9065 35.0981 48.2924 36.041 49.6934 36.579C48.9014 37.7848 48.3404 39.2966 47.2784 40.1499C25.7602 57.513 23.4892 89.7781 42.5206 109.741C50.9323 118.565 61.216 123.503 73.2426 123.663C92.241 123.917 111.248 123.753 130.25 123.756C130.835 123.756 131.417 123.639 132.308 123.546C132.308 121.549 132.14 119.669 132.374 117.842C132.5 116.849 133.106 115.588 133.877 115.13C134.402 114.818 135.857 115.433 136.432 116.076C140.716 120.834 144.877 125.713 149.095 130.533C150.352 131.971 150.256 133.279 149.026 134.679C144.865 139.416 140.782 144.22 136.549 148.886C135.92 149.581 134.435 150.19 133.739 149.887C133.013 149.569 132.491 148.134 132.365 147.12C132.146 145.376 132.305 143.583 132.305 141.314ZM41.3986 39.3925C37.8468 39.3925 35.0239 39.1946 32.2459 39.479C30.938 39.6151 29.294 40.3447 28.5321 41.3773C21.1373 51.4254 17.1684 62.8246 16.9135 75.4357C16.2205 109.522 41.9266 136.701 74.9945 136.874C93.6839 136.973 112.373 136.883 131.066 136.911C132.563 136.911 134.384 136.695 135.464 137.459C136.426 138.142 136.573 140.049 137.17 141.657C139.837 138.59 142.441 135.6 145.096 132.549C142.279 129.321 139.705 126.369 137.131 123.419C136.756 126.192 136.66 128.23 133.442 128.214C112.925 128.122 92.3939 128.548 71.8896 127.989C47.3234 127.318 26.5101 105.512 25.3942 80.2216C24.6982 64.457 29.987 51.1317 41.3986 39.3894V39.3925Z" fill="#028EEE"/>
<path d="M104.646 56.1186C103.671 57.8623 103.089 59.0496 102.381 60.1471C99.8337 64.0829 101.532 68.2505 106.059 69.0945C109.883 69.8087 110.828 70.9558 110.876 74.9626C110.891 76.1158 110.882 77.2659 110.879 78.4192C110.867 83.6411 110.441 84.1883 105.486 85.3384C101.637 86.2288 100.023 90.4336 102.192 93.921C104.796 98.1103 104.709 98.9574 101.286 102.507C100.356 103.471 99.4107 104.424 98.4838 105.394C96.3868 107.589 94.2359 107.849 91.713 105.982C87.4021 102.791 83.4903 104.454 82.6323 109.788C82.1373 112.87 80.5353 114.425 77.4814 114.36C76.2635 114.336 75.0425 114.36 73.8246 114.36C68.4817 114.354 68.0798 114.026 66.8768 108.715C66.0128 104.909 62.029 103.221 58.7441 105.274C54.1932 108.115 53.7162 108.059 49.9574 104.192C49.0214 103.23 48.0794 102.278 47.1645 101.295C45.2745 99.2635 45.1245 97.1704 46.7235 94.8052C50.0084 89.9482 48.5174 86.3679 42.7906 85.1869C40.1087 84.6366 38.7137 83.032 38.7317 80.1783C38.7407 78.818 38.7257 77.4545 38.7287 76.0942C38.7347 70.6651 39.0017 70.325 44.2696 68.9956C47.9414 68.0681 49.5254 63.9345 47.5004 60.5645C44.7915 56.0568 44.8575 55.4384 48.4244 51.7469C49.3574 50.7823 50.2934 49.8239 51.2293 48.8624C53.2483 46.7847 55.3392 46.525 57.7601 48.2811C62.305 51.5769 66.0368 49.9939 66.9908 44.4196C67.4918 41.4948 69.0517 39.9799 71.9646 40.0015C73.3866 40.0108 74.8085 39.9953 76.2335 40.0015C81.0453 40.017 81.6813 40.558 82.7043 45.4831C83.5322 49.4776 87.5851 51.1966 90.987 48.9984C95.2319 46.256 95.9608 46.2993 99.5247 50.0774C101.304 51.9633 102.894 54.0379 104.646 56.1217V56.1186ZM94.4519 102.423C96.3568 100.782 98.0368 99.3346 99.6537 97.9402C94.2419 89.9203 96.6418 83.9904 106.415 80.3082V73.8743C96.9748 71.4566 94.4519 65.066 99.3327 56.6226C97.8328 54.9314 96.3568 53.2619 94.9049 51.6233C88.0351 57.2564 79.5964 54.0255 77.9074 44.6762H71.3797C70.9447 49.1437 68.9167 52.186 65.0649 53.7813C61.198 55.3859 57.7811 54.0503 55.0542 51.9664C53.2333 53.6329 51.6583 55.0736 50.1044 56.4958C55.7412 64.3364 51.7063 72.3996 43.2376 73.9393V80.6143C52.3933 82.5064 54.7842 88.6311 50.3923 97.7084C51.9373 99.347 53.4072 100.902 54.8892 102.473C62.9589 97.3775 69.1357 99.9808 71.6166 109.738H78.0724C80.1274 100.172 87.1051 97.2291 94.4519 102.426V102.423Z" fill="#028EEE"/>
<path d="M74.7515 57.8376C85.0142 57.8005 93.5879 66.6211 93.5729 77.2041C93.5579 87.7839 84.9542 96.5922 74.7035 96.5242C64.5459 96.4562 56.1251 87.7932 56.0351 77.3123C55.9421 66.7603 64.4829 57.8747 74.7515 57.8376ZM89.271 77.3216C89.37 69.2738 82.9743 62.4844 75.0905 62.2742C67.1858 62.064 60.436 68.8163 60.334 77.0371C60.235 85.088 66.6248 91.8712 74.5115 92.0876C82.4073 92.304 89.169 85.5393 89.271 77.3216Z" fill="#028EEE"/>
</g>
<defs>
<clipPath id="clip0_5_6">
<rect width="150" height="150" fill="white"/>
</clipPath>
</defs>
</svg>
