<svg width="150" height="150" viewBox="0 0 150 150" fill="none" xmlns="http://www.w3.org/2000/svg">
<g clip-path="url(#clip0_5_15)">
<path d="M12.099 150C12.099 143.259 12.075 136.614 12.123 129.971C12.132 128.871 11.838 128.091 11.028 127.345C9.47402 125.911 8.04302 124.346 6.50701 122.888C5.87101 122.286 5.58001 121.749 6.18301 120.978C6.36601 120.744 6.47101 120.45 6.61201 120.181C8.14802 117.2 8.21802 114.181 6.82201 111.124C6.63001 110.705 6.08701 110.339 5.62501 110.171C3.78601 109.508 1.91701 108.932 0.00300428 108.309C0.00300428 102.506 -0.0149958 96.7694 0.0450043 91.0298C0.0480043 90.676 0.597005 90.1602 1.00201 90.0072C2.50501 89.4405 4.08301 89.0656 5.57101 88.4629C6.12601 88.238 6.65101 87.6652 6.93901 87.1194C7.52402 86.0129 8.01002 84.8404 8.39102 83.6469C8.56202 83.1071 8.55302 82.3784 8.33102 81.8657C7.71002 80.4383 6.98102 79.0528 6.20101 77.7034C5.74801 76.9207 5.78101 76.417 6.47101 75.7752C8.05502 74.2998 9.51902 72.6925 11.1 71.2171C11.865 70.5034 12.12 69.7508 12.12 68.7132C12.09 46.4985 12.099 24.2869 12.099 2.07223V0.237H113.652V9.72501C116.436 10.2768 119.085 10.6306 121.638 11.3353C138.216 15.9144 149.793 30.9111 149.997 47.9469C150.201 65.1897 139.098 80.4263 122.604 85.4372C121.326 85.827 120.894 86.3368 120.918 87.6982C120.954 89.5184 120.621 91.3447 120.417 93.4738C122.826 95.1051 123.483 97.8399 123.42 101.004C123.309 106.29 123.207 111.589 123.438 116.867C123.717 123.314 120.582 128.676 113.727 130.604V149.997H12.099V150ZM16.974 145.16H108.819V130.586C102.126 128.727 98.8832 123.422 99.1502 117.008C99.3722 111.676 99.2762 106.326 99.1652 100.989C99.0992 97.8249 99.7592 95.0901 102.222 93.4438C101.997 91.5906 101.7 90.0192 101.64 88.4419C101.547 86.0039 101.616 86.0009 99.2462 85.2243C82.6351 79.7635 71.8501 64.1071 72.6181 46.5675C73.3591 29.6516 85.6201 14.9308 102.294 10.9965C104.433 10.4927 106.623 10.1958 108.801 9.80297V5.09196H17.076V65.3876C18.012 63.7413 18.93 63.9872 20.016 64.6499C21.216 65.3816 22.494 65.9903 23.766 66.5961C24.138 66.773 24.663 66.9319 25.011 66.809C26.523 66.2632 28.014 65.6545 29.463 64.9618C29.835 64.7849 30.1201 64.2511 30.2731 63.8193C30.9211 61.978 31.5061 60.1128 32.1031 58.2866H50.1511C50.3371 58.8324 50.5711 59.2942 50.6461 59.783C51.1921 63.3545 52.9201 65.8734 56.6791 66.5421C57.3451 66.6591 58.1431 66.707 58.7311 66.4491C60.4711 65.6875 62.1361 64.7579 63.8791 63.8702C67.9681 67.9695 72.0001 71.9878 75.9811 76.0571C76.2451 76.327 76.3081 77.0677 76.1401 77.4395C75.4591 78.9509 74.6371 80.3993 73.8931 81.8837C73.7191 82.2285 73.4611 82.6963 73.5691 82.9872C74.1781 84.6365 74.8501 86.2648 75.5971 87.8571C75.7471 88.175 76.3051 88.3489 76.7071 88.4899C78.5461 89.1226 80.3971 89.7164 82.2091 90.3131V108.345C80.3221 108.959 78.4471 109.532 76.6051 110.198C76.1461 110.363 75.6091 110.738 75.4201 111.157C74.0361 114.224 74.1381 117.287 75.7261 120.345C75.8641 120.612 76.1191 120.879 76.1221 121.146C76.1311 121.659 76.1881 122.358 75.8941 122.658C72.1231 126.511 68.3101 130.325 64.4551 134.092C64.1611 134.38 63.3631 134.455 62.9551 134.275C61.4401 133.606 59.9911 132.778 58.5091 132.032C57.4381 131.492 52.4101 133.525 52.0051 134.652C51.8701 135.03 51.7651 135.42 51.6391 135.804C51.1411 137.327 50.6401 138.851 50.1211 140.434C45.6301 140.434 41.1991 140.44 36.7651 140.431C35.2561 140.428 33.3271 140.947 32.3521 140.212C31.3201 139.435 31.0741 137.483 30.7051 135.993C30.321 134.431 29.403 133.762 27.999 133.006C25.407 131.615 23.271 131.84 20.949 133.426C19.785 134.221 18.435 135.489 16.965 133.399V145.16H16.974ZM62.7931 128.784C63.0781 128.553 63.4021 128.337 63.6751 128.07C65.5021 126.262 67.2331 124.349 69.1651 122.661C70.4641 121.524 70.7401 120.54 69.6901 119.137C68.1541 117.086 67.7071 114.975 69.5131 112.78C69.8821 112.333 70.0291 111.694 70.2391 111.13C70.8001 109.631 70.9591 107.727 71.9941 106.728C73.0381 105.721 74.9671 105.667 76.4581 105.07C76.8751 104.902 77.3701 104.287 77.3821 103.867C77.4601 100.848 77.4601 97.822 77.3821 94.8022C77.3701 94.3764 76.8931 93.7587 76.4791 93.5817C75.2791 93.0719 73.9681 92.826 72.7771 92.3043C72.2311 92.0644 71.6911 91.4946 71.4451 90.9458C70.8571 89.6174 70.7071 88.0311 69.9121 86.8706C67.9141 83.9618 68.0641 81.2839 70.1521 78.582C70.7551 77.7994 70.4221 77.2596 69.8011 76.6599C67.9531 74.8756 66.0721 73.1093 64.3651 71.1962C63.3061 70.0057 62.3851 69.7148 61.0861 70.7104C58.9351 72.3537 56.7391 72.7435 54.4591 70.8873C54.0481 70.5514 53.4751 70.3235 52.9441 70.2366C49.3531 69.6638 47.3851 67.5887 46.8661 64.0022C46.8121 63.6333 46.0951 63.0996 45.6751 63.0876C42.6541 63.0096 39.6271 63.0096 36.6061 63.0876C36.1801 63.0996 35.5621 63.5794 35.3911 63.9902C34.8691 65.2377 34.5901 66.5871 34.0771 67.8406C33.8851 68.3114 33.3811 68.7882 32.9041 68.9891C31.5151 69.5708 29.886 69.7418 28.683 70.5604C25.767 72.5426 23.091 72.3956 20.388 70.3115C19.608 69.7118 19.068 70.0386 18.465 70.6624C16.68 72.5096 14.913 74.3868 12.999 76.0961C11.814 77.1546 11.508 78.0753 12.507 79.3737C14.157 81.5208 14.529 83.7129 12.696 86.0039C12.3 86.4957 12 87.1674 11.919 87.7912C11.463 91.3327 9.31802 93.057 5.94301 93.4978C4.94701 93.6267 4.81201 94.2175 4.82701 95.0781C4.86901 97.696 4.93501 100.323 4.80601 102.935C4.73401 104.392 5.14201 105.184 6.62701 105.385C9.41402 105.763 11.313 107.091 11.649 110.12C11.712 110.699 11.967 111.322 12.315 111.79C14.424 114.618 14.208 117.353 12.114 120.055C11.511 120.831 11.835 121.374 12.459 121.977C14.307 123.761 16.185 125.527 17.895 127.44C18.951 128.625 19.872 128.934 21.177 127.935C23.325 126.289 25.524 125.902 27.807 127.746C28.221 128.082 28.791 128.316 29.322 128.4C32.9191 128.967 34.8781 131.051 35.3971 134.634C35.4511 135.003 36.1651 135.543 36.5851 135.552C39.6061 135.63 42.6331 135.63 45.6541 135.552C46.0801 135.54 46.6951 135.063 46.8721 134.652C47.3701 133.504 47.7541 132.292 48.0511 131.075C48.2731 130.166 48.7981 129.827 49.6321 129.528C51.8041 128.751 53.9911 127.953 56.0431 126.913C57.2191 126.316 58.0981 126.217 59.2081 126.916C60.3091 127.608 61.5211 128.13 62.7931 128.781V128.784ZM145.164 48.4927C145.143 29.8495 129.945 14.6759 111.291 14.6759C92.6401 14.6759 77.4391 29.8525 77.4211 48.4927C77.4031 67.1958 92.6551 82.4234 111.366 82.3874C130.005 82.3515 145.182 67.1329 145.161 48.4897L145.164 48.4927ZM118.551 109.283C118.551 106.11 118.566 102.938 118.545 99.7651C118.533 97.795 117.648 96.9193 115.671 96.9073C112.8 96.8863 109.929 96.8923 107.058 96.9073C104.889 96.9163 104.043 97.759 104.04 99.9271C104.031 106.071 104.022 112.213 104.04 118.357C104.055 122.637 107.163 125.887 111.219 125.92C115.353 125.956 118.518 122.696 118.545 118.348C118.566 115.329 118.548 112.306 118.548 109.283H118.551ZM116.112 87.0865H106.455C106.455 87.8032 106.44 88.5469 106.455 89.2905C106.5 91.1558 107.376 92.0314 109.263 92.0614C110.721 92.0854 112.179 92.0944 113.637 92.0524C115.035 92.0104 115.917 91.2577 116.088 89.8723C116.202 88.9427 116.109 87.9891 116.109 87.0895L116.112 87.0865Z" fill="#028EEE"/>
<path d="M21.885 9.90491H70.0831V33.9038H21.885V9.90491ZM65.2591 14.7839H26.739V29.1058H65.2591V14.7839Z" fill="#028EEE"/>
<path d="M21.843 53.2637V48.6127H67.6741V53.2637H21.843Z" fill="#028EEE"/>
<path d="M67.6411 43.6258H31.5301V38.9717H67.6411V43.6258Z" fill="#028EEE"/>
<path d="M77.4781 130.64V126.013H96.6962V130.64H77.4781Z" fill="#028EEE"/>
<path d="M77.4931 140.329V135.672H96.6572V140.329H77.4931Z" fill="#028EEE"/>
<path d="M21.846 43.5928V38.9387H26.499V43.5928H21.846Z" fill="#028EEE"/>
<path d="M41.1061 72.7195C55.7941 72.7106 67.7491 84.6575 67.7431 99.3334C67.7371 114.003 55.7641 125.941 41.0791 125.923C26.475 125.905 14.541 113.979 14.52 99.3813C14.499 84.6965 26.433 72.7285 41.1091 72.7195H41.1061ZM38.6461 77.9014C29.2831 78.2342 20.019 87.4164 19.713 96.8384H29.2381C30.5521 91.8815 33.6961 88.7448 38.6461 87.4314V77.9014ZM62.6311 96.8414C61.7041 85.7221 51.5551 78.0723 43.6141 77.9014V87.3624C49.4611 89.6294 50.8651 91.0328 53.0821 96.8384H62.6281L62.6311 96.8414ZM29.2501 101.81H19.671C20.244 112.129 30.1951 120.603 38.6551 120.699V111.205C33.7231 109.886 30.5881 106.803 29.2501 101.813V101.81ZM62.6011 101.738H53.6101C52.1221 104.047 51.1621 106.242 49.5781 107.805C47.9641 109.397 45.7351 110.369 43.6531 111.688V120.795C53.7481 120.067 62.1181 110.855 62.6011 101.735V101.738ZM41.0911 106.569C45.0421 106.587 48.3301 103.367 48.3811 99.4293C48.4351 95.411 45.1711 92.0854 41.1631 92.0674C37.2061 92.0494 33.9241 95.2641 33.8731 99.2044C33.8221 103.226 37.0801 106.551 41.0881 106.569H41.0911Z" fill="#028EEE"/>
<path d="M140.325 48.4957C140.34 64.488 127.317 77.5385 111.33 77.5535C95.3342 77.5685 82.2751 64.548 82.2631 48.5677C82.2511 32.5694 95.2652 19.5279 111.258 19.5129C127.26 19.4979 140.31 32.5094 140.325 48.4957ZM87.1021 48.4357C87.0691 61.7441 97.8602 72.6535 111.123 72.7165C124.509 72.7795 135.453 61.96 135.489 48.6276C135.525 35.3162 124.731 24.4098 111.465 24.3529C98.0672 24.2959 87.1381 35.1003 87.1021 48.4387V48.4357Z" fill="#028EEE"/>
<path d="M104.013 61.3003C101.154 58.4455 98.2442 55.5398 95.2802 52.58C96.3122 51.5874 97.4162 50.5229 98.5802 49.4043C100.281 51.1586 102.027 52.9548 103.8 54.7811C110.607 47.9709 117.24 41.3377 123.915 34.6595C125.211 35.958 126.291 37.0435 127.284 38.0391C119.499 45.8209 111.747 53.5696 104.013 61.3003Z" fill="#028EEE"/>
</g>
<defs>
<clipPath id="clip0_5_15">
<rect width="150" height="150" fill="white"/>
</clipPath>
</defs>
</svg>
